<?xml version="1.0" encoding="UTF-8" standalone="no"?>
<!-- Created with Inkscape (http://www.inkscape.org/) -->

<svg
   xmlns:dc="http://purl.org/dc/elements/1.1/"
   xmlns:cc="http://creativecommons.org/ns#"
   xmlns:rdf="http://www.w3.org/1999/02/22-rdf-syntax-ns#"
   xmlns:svg="http://www.w3.org/2000/svg"
   xmlns="http://www.w3.org/2000/svg"
   xmlns:sodipodi="http://sodipodi.sourceforge.net/DTD/sodipodi-0.dtd"
   xmlns:inkscape="http://www.inkscape.org/namespaces/inkscape"
   version="1.1"
   id="svg2"
   width="663.28247"
   height="482.87006"
   viewBox="0 0 663.28245 482.87005"
   sodipodi:docname="smcv_solo_logo.svg"
   inkscape:version="0.92.3 (2405546, 2018-03-11)">
  <metadata
     id="metadata8">
    <rdf:RDF>
      <cc:Work
         rdf:about="">
        <dc:format>image/svg+xml</dc:format>
        <dc:type
           rdf:resource="http://purl.org/dc/dcmitype/StillImage" />
        <dc:title></dc:title>
      </cc:Work>
    </rdf:RDF>
  </metadata>
  <defs
     id="defs6">
    <clipPath
       clipPathUnits="userSpaceOnUse"
       id="clipPath30">
      <rect
         id="rect32"
         width="829.03815"
         height="686.80945"
         x="305.79742"
         y="-35.412304"
         style="stroke-width:1.26065326" />
    </clipPath>
  </defs>
  <sodipodi:namedview
     pagecolor="#ffffff"
     bordercolor="#666666"
     borderopacity="1"
     objecttolerance="10"
     gridtolerance="10"
     guidetolerance="10"
     inkscape:pageopacity="0"
     inkscape:pageshadow="2"
     inkscape:window-width="1920"
     inkscape:window-height="1001"
     id="namedview4"
     showgrid="false"
     inkscape:zoom="0.2517781"
     inkscape:cx="681.38986"
     inkscape:cy="208.25989"
     inkscape:window-x="-9"
     inkscape:window-y="-9"
     inkscape:window-maximized="1"
     inkscape:current-layer="svg2" />
  <g
     id="g12"
     transform="matrix(0.80006264,0,0,0.78647461,-236.71359,2.3367546)"
     clip-path="url(#clipPath30)">
    <path
       style="fill:#d8caaf;stroke-width:1.33333337"
       d="M 68.4969,834.77271 C 37.870848,826.49282 17.166004,804.82937 10.161804,773.73677 7.0458038,759.90442 7.2689103,735.28509 10.629333,722.14596 c 4.124361,-16.1261 10.938912,-27.87447 23.295088,-40.16103 12.098749,-12.03059 21.970027,-17.6386 38.952977,-22.12973 19.759702,-5.22544 57.384792,-2.92886 65.974922,4.02701 l 2.89607,2.34509 -2.441,9.01778 c -1.34255,4.95978 -3.1356,9.28432 -3.98456,9.6101 -0.84895,0.32578 -6.29389,-0.73157 -12.09986,-2.34964 -19.86633,-5.5366 -42.148889,-3.54204 -58.342115,5.22231 -8.269979,4.476 -18.381713,15.55051 -22.879387,25.05781 -9.522625,20.12918 -9.571885,48.6844 -0.1196,69.33091 4.097453,8.95001 14.656115,20.30102 23.219216,24.96165 13.584763,7.39375 35.834486,9.61316 54.232256,5.40965 18.62346,-4.25506 17.20005,-4.64765 19.94728,5.50143 2.15569,7.96379 2.1952,9.10629 0.3777,10.92379 -7.29028,7.29028 -52.193363,10.98772 -71.16142,5.85962 z m 144.16977,1.7261 c -22.03496,-5.53418 -36.20729,-18.33718 -43.43404,-39.23744 -4.39676,-12.71575 -4.22459,-35.32044 0.37621,-49.39155 6.04634,-18.49214 16.48863,-30.74081 32.48432,-38.10365 10.18949,-4.69024 28.25999,-5.87605 39.54613,-2.59508 21.82498,6.34469 34.9311,25.73461 36.62532,54.18557 0.60764,10.20413 0.37234,13.00813 -1.20116,14.31403 -1.42547,1.18302 -13.33071,1.71977 -43.84347,1.97665 l -41.88664,0.35264 0.40762,4 c 1.3397,13.14604 8.35159,23.88864 19.39395,29.71257 6.31555,3.33092 8.09254,3.62076 22.19843,3.62076 11.38804,0 17.51899,-0.66724 23.82784,-2.59324 8.21912,-2.50916 8.55235,-2.51413 10.27864,-0.15329 2.07323,2.83531 3.86741,13.15409 2.77992,15.98805 -1.60263,4.17638 -17.84488,7.78808 -36.8864,8.20223 -9.9,0.21532 -19.2,0.0901 -20.66667,-0.27825 z m 39.55738,-84.49883 c -0.5168,-5.44857 -4.66788,-15.45281 -7.94163,-19.1396 -6.59263,-7.42434 -22.83917,-9.75452 -33.16367,-4.75652 -8.61305,4.16951 -16.11429,14.32891 -18.40087,24.92144 l -0.94088,4.35865 30.44483,-0.35865 30.44484,-0.35865 z m 288.44263,83.4638 c -13.47703,-4.2734 -27.06264,-14.64337 -33.43937,-25.52447 -8.84827,-15.09841 -11.98552,-36.40802 -7.99847,-54.32906 4.76333,-21.41024 15.42487,-35.50437 33.68355,-44.52831 l 10.28265,-5.08196 h 17.40249 c 16.81403,0 17.70719,0.14434 26.41386,4.2686 27.25142,12.90875 40.68197,43.67568 33.64073,77.06473 -5.01796,23.79478 -19.83737,40.59588 -41.79256,47.38116 -9.88144,3.05388 -29.69883,3.44268 -38.19288,0.74931 z m 26.40957,-19.54192 c 9.3077,-2.34996 17.46243,-9.30129 22.1106,-18.84771 5.83416,-11.98214 7.50538,-24.59157 4.90943,-37.04181 -4.72131,-22.64349 -16.00683,-33.84626 -34.09627,-33.84626 -10.35209,0 -17.21752,3.0775 -24.26322,10.87625 -7.72358,8.54908 -10.91684,18.57361 -10.91684,34.27098 0,15.5938 2.8757,24.7157 10.65789,33.80743 8.63224,10.08483 19.5722,13.81745 31.59841,10.78112 z m 330.28943,19.34727 c -26.58443,-7.41067 -41.52346,-29.03896 -41.85919,-60.60248 -0.24232,-22.78188 5.64118,-39.56116 18.48438,-52.71596 10.52291,-10.77824 21.77192,-15.69567 37.48318,-16.38552 8.57372,-0.37645 14.30533,0.0961 19.50833,1.60875 21.35338,6.2076 34.77503,25.83797 36.64052,53.59005 1.2057,17.93653 4.8457,16.56934 -44.11424,16.56934 -22.95197,0 -42.04617,0.31531 -42.43155,0.70068 -1.19814,1.19815 1.68286,14.25716 4.24295,19.2324 3.08121,5.98799 8.36005,10.9065 16.0133,14.92023 5.34254,2.80189 7.7532,3.14504 22,3.13161 12.02313,-0.012 17.7522,-0.62202 23.04958,-2.45696 3.87727,-1.34302 7.87559,-2.1249 8.88515,-1.7375 2.12075,0.81381 5.48567,14.32216 4.32263,17.353 -0.43034,1.12145 -4.8643,3.3597 -9.85323,4.97389 -12.00396,3.88393 -41.31176,4.90157 -52.37181,1.81847 z m 44.19172,-83.26915 c -0.5168,-5.44857 -4.66788,-15.45281 -7.94163,-19.1396 -3.73231,-4.20316 -12.4332,-7.46636 -19.99191,-7.49778 -13.26489,-0.0552 -22.03415,5.89357 -28.45692,19.30405 -6.52485,13.62364 -8.35497,12.77014 26.49975,12.35836 l 30.33333,-0.35836 z m 185.776,83.00497 c -23.5105,-8.43017 -37.9537,-32.153 -37.9537,-62.3383 0,-28.31128 12.9139,-51.74163 34.3285,-62.28401 7.1974,-3.54326 10.5497,-4.336 20.3088,-4.80259 13.795,-0.65955 22.5514,1.66848 32.3164,8.59184 l 6.3333,4.49032 v -33.2842 c 0,-38.31771 -0.8408,-36.04469 13.3333,-36.04469 14.8156,0 13.3334,-10.4553 13.3334,94.0469 v 91.28643 h -11.1907 c -12.4617,0 -12.8093,-0.25626 -12.8093,-9.44239 0,-2.87335 -0.2246,-5.22428 -0.4991,-5.22428 -0.2745,0 -2.8228,2.12841 -5.6628,4.7298 -9.2972,8.51591 -18.0184,11.81136 -32.4604,12.26573 -9.6433,0.3034 -14.32,-0.177 -19.3777,-1.99056 z m 36.8499,-22.37576 c 7.2822,-3.6726 12.977,-10.01198 15.82,-17.61058 2.1543,-5.75796 2.6634,-10.39026 2.6634,-24.23435 0,-24.58613 -4.0577,-33.91904 -17.7037,-40.7191 -17.4628,-8.70208 -37.3547,0.1 -45.0508,19.93482 -4.3995,11.33851 -4.4557,32.57664 -0.1155,43.56909 3.7748,9.56019 11.8608,17.80336 20.0345,20.42391 7.4094,2.37551 18.128,1.77524 24.3522,-1.36379 z m 126.1446,23.33708 c -13.1236,-3.30413 -28.541,-14.83382 -35.3329,-26.4233 -5.4473,-9.29519 -8.3283,-21.82952 -8.3283,-36.234 0,-29.54054 12.4184,-52.18033 34.5674,-63.01927 8.3893,-4.10542 9.4533,-4.28972 24.7659,-4.28972 14.927,0 16.4918,0.25211 23.3334,3.75911 13.2566,6.79547 21.6609,17.36384 26.5457,33.38134 2.7171,8.90912 3.8459,27.21696 1.9783,32.08383 -0.7147,1.86244 -5.803,2.10905 -43.5146,2.10905 h -42.7052 l 0.8389,6.12083 c 1.8144,13.23741 9.37,23.78487 20.8419,29.09497 8.3363,3.8587 32.9936,3.99392 44.4268,0.24366 9.2383,-3.0303 10.3842,-2.32999 12.8439,7.84969 1.5025,6.21816 1.42,6.79228 -1.2912,8.98769 -5.6499,4.57499 -15.9299,6.65239 -35.2979,7.13307 -10.2666,0.2548 -20.9191,-0.10387 -23.6721,-0.79695 z m 42.6356,-84.00821 c -1.0518,-7.84167 -6.2293,-17.23906 -12.0386,-21.85064 -4.3002,-3.41357 -6.48,-4.10814 -14.2751,-4.5486 -11.7991,-0.66672 -19.7569,2.83815 -25.8187,11.37152 -4.3135,6.07209 -9.0579,17.62399 -7.9647,19.3928 0.3434,0.5556 14.1679,1.01017 30.7212,1.01017 h 30.0968 z M 316.92605,833.71695 c -0.34478,-0.57766 -0.84418,-28.9503 -1.10979,-63.0503 l -0.48292,-62 10.55089,-0.39333 c 12.13186,-0.45228 12.73171,-0.0107 12.76203,9.39333 0.0107,3.48333 0.47041,6.32591 1.02041,6.31683 0.55,-0.009 2.29424,-2.0156 3.8761,-4.45895 5.95639,-9.20029 19.13595,-15.10695 31.15924,-13.96459 l 4.63133,0.44004 v 12 12 l -8.66666,0.70034 c -10.0855,0.81498 -15.85803,3.54337 -20.57159,9.72315 -7.29124,9.55931 -7.86707,13.20318 -8.67727,54.90984 l -0.75115,38.66667 -11.55688,0.38364 c -6.35629,0.211 -11.83897,-0.0889 -12.18374,-0.66667 z m 97.33999,0 c -0.34111,-0.57766 -0.84051,-28.9503 -1.10978,-63.0503 l -0.48958,-62 10.55089,-0.39333 c 12.15928,-0.4533 12.73188,-0.0252 12.76203,9.54004 l 0.0204,6.48004 7.20454,-7.32058 c 8.63303,-8.77206 15.97852,-11.96469 26.19455,-11.38513 l 7.26759,0.41229 v 12 12 l -8.66667,0.70034 c -10.08549,0.81498 -15.85803,3.54337 -20.57159,9.72315 -7.29124,9.55931 -7.86706,13.20318 -8.67726,54.90984 l -0.75115,38.66667 -11.55688,0.38364 c -6.35629,0.211 -11.83597,-0.0889 -12.17709,-0.66667 z m 341.14291,-2.01365 c -1.14157,-1.62983 -2.0756,-3.50651 -2.0756,-4.17037 0,-0.66388 -8.67436,-27.68038 -19.27635,-60.03667 -35.40976,-108.06734 -34.41064,-104.79692 -32.66013,-106.90616 2.06321,-2.48601 21.06548,-2.68649 24.33883,-0.25678 2.04718,1.51957 33.19895,97.31169 40.867,125.66666 1.58652,5.86667 3.16652,11.50889 3.51109,12.53829 0.34458,1.0294 11.0982,-29.27008 23.89695,-67.33214 14.27197,-42.44327 24.15247,-69.84872 25.55137,-70.87163 3.08286,-2.25424 20.54538,-2.19154 23.65866,0.0849 2.24486,1.64148 0.47606,7.12368 -27.85244,86.32597 -16.63724,46.51525 -30.87472,85.32649 -31.63884,86.2472 -0.93287,1.12404 -5.47236,1.67402 -13.81712,1.67402 -11.33106,0 -12.61098,-0.26152 -14.50342,-2.96334 z m 250.86515,2.01365 c -0.3366,-0.57766 -0.836,-28.9503 -1.1097,-63.0503 l -0.4977,-62 10.5509,-0.39333 c 12.1593,-0.4533 12.7319,-0.0252 12.762,9.54004 l 0.02,6.48004 7.2046,-7.32058 c 8.633,-8.77206 15.9785,-11.96469 26.1945,-11.38513 l 7.2676,0.41229 v 12 12 L 1060,730.70032 c -10.0855,0.81498 -15.858,3.54337 -20.5716,9.72315 -7.3441,9.62872 -7.9065,13.17976 -8.6965,54.90984 l -0.7319,38.66667 -11.5569,0.38364 c -6.3562,0.211 -11.8323,-0.0889 -12.169,-0.66667 z M 552.92119,558.59875 c -34.2827,-5.26367 -65.90206,-28.70902 -81.45659,-60.39903 -10.17683,-20.73373 -10.32614,-21.7742 -11.41268,-79.53306 -0.54642,-29.04618 -0.45519,-52.82791 0.21013,-54.77575 0.72553,-2.12415 0.6452,-4.83803 -0.20979,-7.0868 -0.9174,-2.41297 -1.38558,-40.3517 -1.38558,-112.28046 0,-92.13797 0.30862,-110.1302 2.03218,-118.47455 8.48455,-41.076299 40.45927,-74.069671 82.3333,-84.95628 10.84129,-2.818566 12.7886,-2.857964 168.74854,-3.413957 143.53637,-0.511704 158.68045,-0.362301 167.74737,1.654896 42.65547,9.489941 75.88335,42.968367 84.60923,85.247231 2.1328,10.33387 2.4969,18.31845 2.51187,55.08567 0.0163,40.09412 -0.14016,42.99572 -2.31581,42.93663 -1.44274,-0.0392 -6.43216,-6.0189 -13.07212,-15.66667 C 900.4918,133.16939 859.30899,75.322279 852.60933,68.365988 c -6.93011,-7.195574 -8.72258,-8.365989 -12.81228,-8.365989 -12.12878,0 -21.32192,13.412134 -153.08033,223.333331 -69.38605,110.54781 -77.43037,122.06269 -101.57151,145.39247 -14.50245,14.01506 -22.15465,18.27863 -34.19504,19.05243 -7.28728,0.46833 -9.46602,0.004 -16.66666,-3.54765 -14.7214,-7.26235 -32.17587,-25.67843 -55.50598,-58.56392 -8.38223,-11.81538 -10.831,-14.8491 -10.76244,-13.33334 0.0905,2.00326 75.63946,170.67409 76.50799,170.81217 0.64977,0.10334 32.14791,-47.92608 69.99584,-106.73198 49.22416,-76.48159 73.63424,-113.1323 85.7449,-128.74234 52.69829,-67.92556 84.36627,-99.72943 113.03752,-113.52261 10.49288,-5.04792 12.2574,-5.47168 24.66667,-5.92384 16.73444,-0.60976 26.03776,1.60154 44.03201,10.46597 18.44872,9.0883 38.89175,24.89842 64,49.496 l 21.33334,20.89942 v 98.45693 c 0,107.50088 0.24964,103.64809 -7.98524,123.24109 -11.40082,27.12566 -33.99312,49.06866 -62.01476,60.23247 -18.61362,7.41567 -18.45193,7.40853 -184.00001,8.11753 -86.51907,0.37054 -156.02264,0.13856 -160.41216,-0.53538 z"
       id="path26"
       inkscape:connector-curvature="0" />
    <path
       style="fill:#f3b292;stroke-width:1.33333337"
       d="M 68.268952,833.30377 C 54.070009,829.58387 43.319826,823.38791 32.533235,812.70718 21.945114,802.22297 14.931474,789.58511 11.410609,774.64642 8.3720426,761.75407 8.6524349,735.08884 11.962666,722.14596 23.081227,678.67281 63.051343,653.1932 111.77257,658.5205 c 14.91717,1.63108 26.72239,4.81391 27.74569,7.48058 0.84682,2.20681 -3.01976,16.2001 -4.77635,17.28574 -0.67269,0.41574 -5.90553,-0.52872 -11.62853,-2.09881 -20.23111,-5.55032 -43.933815,-3.21169 -59.417661,5.86244 -8.381456,4.91187 -19.341361,17.14979 -23.226618,25.93504 -12.127804,27.42312 -7.803218,64.98238 9.671607,83.99842 14.908894,16.2238 42.428288,22.92598 69.192632,16.85144 17.80705,-4.04156 16.2123,-4.35084 18.5741,3.60222 2.88099,9.70132 2.73234,10.43117 -2.57624,12.64924 -15.12014,6.3176 -49.019922,7.94376 -67.062248,3.21696 z m 137.952968,-0.0687 c -21.28666,-7.32248 -34.69618,-24.06095 -38.32773,-47.84271 -4.85424,-31.78868 8.63417,-61.60859 33.37715,-73.78951 8.23664,-4.0549 9.44477,-4.26951 24.03396,-4.26951 18.90051,0 25.70468,2.54259 36.03528,13.46568 11.01599,11.64779 16.62259,27.97636 15.74917,45.86765 l -0.42308,8.66667 -42.66666,0.66666 -42.66667,0.66667 -0.42198,4.38909 c -1.12102,11.66028 8.9495,26.89055 21.37174,32.32182 10.37525,4.53626 26.58881,5.10517 41.07731,1.44134 C 259.49143,813.26851 264.96527,812 265.52453,812 c 1.29016,0 3.79157,8.8866 3.80137,13.50491 0.005,2.58101 -0.95909,3.89333 -3.65923,4.97844 -15.03709,6.043 -45.74466,7.46447 -59.44475,2.75172 z m 47.35199,-80.56845 c -1.35589,-16.97167 -13.38517,-28.60811 -29.5739,-28.60811 -9.25239,0 -16.57659,3.27915 -22.83894,10.22527 -5.03657,5.5865 -11.128,19.4752 -9.92107,22.62041 0.56386,1.46939 6.55906,1.74409 31.72762,1.45375 l 31.03239,-0.35799 z m 285.74202,80.93497 c -27.50464,-9.51088 -42.60101,-34.84731 -40.22985,-67.51827 1.85173,-25.51414 14.13167,-44.48365 35.28283,-54.50339 8.64604,-4.0958 9.58009,-4.24664 26.29777,-4.24664 16.66395,0 17.67437,0.16158 26.16451,4.18428 20.76293,9.83764 32.35796,28.17701 34.09581,53.92793 1.36828,20.27478 -4.68719,39.37724 -16.47868,51.98329 -12.04533,12.87744 -26.32188,18.59859 -46.23376,18.52763 -8.02721,-0.0285 -14.50595,-0.83587 -18.89863,-2.35483 z m 34.95882,-19.11679 c 23.7598,-11.29508 29.98253,-56.003 10.82426,-77.76796 -10.95238,-12.44255 -25.54689,-15.39139 -40.34444,-8.15162 -14.10496,6.90091 -21.20876,21.22593 -21.20876,42.76806 0,16.12778 3.25595,25.9798 11.56506,34.99412 11.22632,12.17911 24.76992,15.0001 39.16388,8.1574 z m 320.8428,18.83423 c -19.15278,-6.2406 -32.5659,-21.94661 -37.12649,-43.47304 -6.98609,-32.97512 6.81713,-66.15221 32.60701,-78.3733 8.19622,-3.88396 9.68153,-4.1394 24.06862,-4.1394 19.25681,0 25.84821,2.5459 36.56757,14.12408 9.994,10.79472 15.43243,26.04747 15.43243,43.28218 0,12.22943 3.71845,11.2604 -43.20932,11.2604 -27.36294,0 -42.07131,0.48063 -42.99564,1.40496 -1.83496,1.83496 0.23248,13.4664 3.53026,19.86145 3.17784,6.16242 9.84603,12.3624 17.34137,16.12372 9.01368,4.52328 26.64338,5.1504 41.21305,1.46604 6.11329,-1.54592 11.61903,-2.49929 12.23497,-2.11862 1.38011,0.85296 3.86778,9.5403 3.87787,13.54221 0.007,2.46243 -1.47095,3.42572 -8.99256,5.86424 -13.30264,4.31273 -42.95881,4.95159 -54.54914,1.17508 z m 47.69042,-76.31908 c 0.65771,-7.75867 -3.22421,-19.0438 -8.53975,-24.82594 -6.96638,-7.57791 -22.2582,-10.43842 -32.64436,-6.10648 -2.72644,1.13717 -6.96075,3.98717 -9.40956,6.33333 -6.66765,6.38816 -13.64475,21.53918 -11.50972,24.99374 1.26928,2.05374 61.92852,1.66826 62.10339,-0.39465 z m 185.62433,77.15435 c -17.2948,-5.6366 -31.4968,-22.79724 -35.8453,-43.31292 -7.1261,-33.61999 5.9001,-66.70915 31.1561,-79.14261 8.3918,-4.13128 9.6559,-4.36548 23.5622,-4.36548 16.1476,0 21.4188,1.75346 31.3614,10.43244 l 4.6667,4.07356 0.3567,-33.8112 c 0.2343,-22.21538 0.8619,-34.42 1.8299,-35.58634 1.8961,-2.28469 18.6301,-2.42504 20.88,-0.17513 1.2128,1.21276 1.6,23.33099 1.6,91.38941 v 89.78943 l -10.3333,-0.38943 -10.3333,-0.38941 -0.3999,-7.66667 c -0.2199,-4.21667 -0.7577,-7.66667 -1.1951,-7.66667 -0.4373,0 -3.727,2.74244 -7.3105,6.09431 -9.6396,9.01676 -16.5999,11.67909 -31.7612,12.14885 -8.096,0.25084 -14.6758,-0.26232 -18.2344,-1.42214 z m 36.0159,-20.3264 c 7.1628,-3.60266 14.0844,-11.31495 16.8937,-18.8236 3.366,-8.99642 3.7728,-36.11742 0.6964,-46.42902 -5.0869,-17.05053 -22.9055,-26.70554 -40.2985,-21.83579 -8.927,2.49938 -19.0906,12.71701 -23.1375,23.26046 -4.4056,11.47776 -4.4035,32.58617 0,43.8758 3.9448,10.10399 12.2787,18.60236 20.9537,21.36725 7.517,2.39586 18.5593,1.768 24.888,-1.4151 z m 125.7088,20.76021 c -18.8675,-4.689 -35.0015,-21.00303 -40.0876,-40.53496 -2.4128,-9.26564 -2.7166,-29.4848 -0.5959,-39.65424 3.8245,-18.33973 16.4263,-35.3228 31.6534,-42.65848 7.6586,-3.68949 10.6407,-4.35005 21.7858,-4.82578 20.948,-0.89415 34.9247,5.48406 44.3688,20.24754 7.1124,11.11853 9.3852,19.55513 9.3852,34.83776 v 13.33333 l -42.6667,0.66667 -42.6666,0.66667 0.2347,6.55324 c 0.3198,8.9276 6.2037,20.12 13.5046,25.68864 10.8036,8.24014 28.6519,10.6432 46.9273,6.31817 14.9991,-3.54965 14.8675,-3.58624 16.9934,4.72173 2.1853,8.54058 1.5832,9.34922 -9.6368,12.94027 -7.9165,2.53371 -41.2146,3.68388 -49.1996,1.69944 z m 44.2553,-78.91497 c 0.9696,-5.04287 -3.8965,-17.22983 -9.1596,-22.93959 -12.6858,-13.76244 -35.8472,-11.12513 -46.7094,5.31863 -3.9428,5.96884 -8.205,17.67112 -7.092,19.47193 0.4084,0.66084 14.4889,1.03195 31.6249,0.83352 28.1594,-0.32608 30.9282,-0.56328 31.3361,-2.68449 z M 317.32793,788.33331 c -0.003,-24.75 -0.39692,-52.67693 -0.87546,-62.05983 l -0.87005,-17.05986 10.54212,0.39319 10.54213,0.39317 0.36984,7.33334 c 0.55754,11.05458 1.169,11.70338 5.45452,5.7874 8.25873,-11.40084 17.11994,-16.45407 28.85341,-16.45407 h 7.43008 l -0.38726,11 -0.38725,11 -8,0.70804 c -9.59555,0.84925 -15.04012,3.55421 -20.50947,10.18946 -7.95433,9.64999 -8.55168,13.26086 -9.17081,55.43583 l -0.56275,38.33333 h -11.21181 -11.21183 l -0.005,-45 z m 97.33387,2 c -0.003,-23.65 -0.39724,-51.57694 -0.87679,-62.05986 l -0.87192,-19.05987 10.54347,0.3932 10.54345,0.3932 0.39425,9 c 0.21684,4.95 0.96684,9 1.66667,9 0.69983,0 1.27241,-0.5351 1.27241,-1.18913 0,-0.65401 2.71324,-4.20691 6.02943,-7.89529 7.94677,-8.83874 15.58629,-12.52052 24.87561,-11.98855 l 7.09496,0.40631 v 10.66666 10.66667 l -8,0.77844 c -9.75032,0.94876 -15.14413,3.61 -20.50946,10.11906 -7.95434,9.64999 -8.55168,13.26086 -9.17082,55.43583 l -0.56274,38.33333 H 425.8785 414.66668 l -0.005,-43 z m 341.37316,40.04836 c -0.7069,-1.6766 -13.38177,-40.16485 -28.16636,-85.52946 -21.65404,-66.44261 -26.52337,-82.70768 -25.0415,-83.64625 2.31158,-1.4641 19.92161,-1.53622 22.19872,-0.0909 1.74681,1.10871 31.29613,92.82805 39.80476,123.55161 2.64017,9.53334 5.30233,17.8723 5.91589,18.53103 0.62016,0.66579 1.8308,-1.70276 2.72606,-5.33333 3.31097,-13.42726 45.17296,-135.695 46.81618,-136.73767 2.27402,-1.4429 19.88786,-1.39642 22.184,0.0585 1.42976,0.90598 -4.54414,18.8877 -28.67501,86.31291 l -30.48103,85.16854 -12.99821,0.38169 c -12.4488,0.36556 -13.05254,0.25285 -14.2835,-2.66667 z m 250.63174,-36.83541 c 0,-21.88288 -0.3953,-49.80983 -0.8784,-62.05989 l -0.8784,-22.27285 10.545,0.39324 10.5451,0.39322 0.3943,9 c 0.2168,4.95 0.9668,9 1.6666,9 0.6999,0 1.2725,-0.5351 1.2725,-1.18913 0,-0.65401 2.7132,-4.20691 6.0294,-7.89529 7.9468,-8.83874 15.5863,-12.52052 24.8756,-11.98855 l 7.095,0.40631 v 10.66666 10.66667 l -8,0.70804 c -9.5956,0.84925 -15.0402,3.55421 -20.5095,10.18946 -8.0086,9.7158 -8.5926,13.24424 -9.1752,55.43583 l -0.5294,38.33333 h -11.2263 -11.2263 z M 547.33335,556.45355 c -33.84502,-7.23692 -61.51698,-29.64368 -76.56341,-61.99554 -9.29506,-19.98565 -10.04949,-26.00003 -10.07808,-80.34347 -0.0197,-37.4267 0.34298,-48.00892 1.66046,-48.45076 0.97386,-0.32662 2.57548,1.59552 3.79304,4.5521 8.09488,19.65683 75.95013,172.14172 77.23565,173.56463 2.01207,2.22709 -1.45168,7.22026 43.31947,-62.44719 20.02897,-31.16666 49.91207,-77.66666 66.40687,-103.33333 29.11936,-45.31105 49.47123,-73.317 78.87577,-108.53997 35.31846,-42.30711 61.11342,-65.68241 83.31767,-75.50218 36.13682,-15.98142 79.34655,3.11829 135.03257,59.68755 l 16.33333,16.5924 v 96.66781 c 0,109.86739 0.29952,106.40724 -11.23249,129.76105 -10.83167,21.93555 -27.11419,38.15168 -49.43418,49.23263 -21.12519,10.48777 -19.94385,10.34259 -93.33333,11.47136 -35.93334,0.55268 -108.23334,1.02145 -160.66667,1.04173 -79.7057,0.0308 -96.86331,-0.29026 -104.66667,-1.95882 z M 541.07096,446.1926 c -11.60289,-3.2319 -23.20753,-12.65038 -39.22805,-31.838 -10.1317,-12.1346 -33.73283,-44.30709 -38.72577,-52.79001 l -2.88286,-4.89793 -0.33432,-112 C 459.56845,133.60717 459.5898,132.57709 462.4417,122 c 11.89608,-44.119977 48.90691,-76.798808 92.75257,-81.896196 5.96401,-0.693361 79.80852,-1.42724 164.80575,-1.637865 l 154,-0.381616 11.74329,3.640869 c 19.87371,6.161615 34.52023,14.830376 48.04773,28.437774 15.37417,15.464979 26.9062,37.735074 30.08402,58.096794 1.83864,11.78101 3.10388,89.22706 1.49876,91.74023 -1.13544,1.77778 -1.49088,1.77778 -3.19902,0 C 961.11789,218.89999 937.67114,185.6 910.07093,146 849.39395,58.942381 845.36482,54.444952 833.53131,60.564296 822.43385,66.303016 809.55878,85.893138 652.16407,336.52435 595.72789,426.39184 568.05577,453.70906 541.07096,446.1926 Z"
       id="path24"
       inkscape:connector-curvature="0" />
    <path
       style="fill:#b2b28c;stroke-width:1.33333337"
       d="M 68.268952,833.30377 C 54.070009,829.58387 43.319826,823.38791 32.533235,812.70718 21.945114,802.22297 14.931474,789.58511 11.410609,774.64642 8.3720426,761.75407 8.6524349,735.08884 11.962666,722.14596 23.081227,678.67281 63.051343,653.1932 111.77257,658.5205 c 14.91717,1.63108 26.72239,4.81391 27.74569,7.48058 0.84682,2.20681 -3.01976,16.2001 -4.77635,17.28574 -0.67269,0.41574 -5.90553,-0.52872 -11.62853,-2.09881 -20.23111,-5.55032 -43.933815,-3.21169 -59.417661,5.86244 -8.381456,4.91187 -19.341361,17.14979 -23.226618,25.93504 -12.127804,27.42312 -7.803218,64.98238 9.671607,83.99842 14.908894,16.2238 42.428288,22.92598 69.192632,16.85144 17.80705,-4.04156 16.2123,-4.35084 18.5741,3.60222 2.88099,9.70132 2.73234,10.43117 -2.57624,12.64924 -15.12014,6.3176 -49.019922,7.94376 -67.062248,3.21696 z m 137.952968,-0.0687 c -21.28666,-7.32248 -34.69618,-24.06095 -38.32773,-47.84271 -4.85424,-31.78868 8.63417,-61.60859 33.37715,-73.78951 8.23664,-4.0549 9.44477,-4.26951 24.03396,-4.26951 18.90051,0 25.70468,2.54259 36.03528,13.46568 11.01599,11.64779 16.62259,27.97636 15.74917,45.86765 l -0.42308,8.66667 -42.66666,0.66666 -42.66667,0.66667 -0.42198,4.38909 c -1.12102,11.66028 8.9495,26.89055 21.37174,32.32182 10.37525,4.53626 26.58881,5.10517 41.07731,1.44134 C 259.49143,813.26851 264.96527,812 265.52453,812 c 1.29016,0 3.79157,8.8866 3.80137,13.50491 0.005,2.58101 -0.95909,3.89333 -3.65923,4.97844 -15.03709,6.043 -45.74466,7.46447 -59.44475,2.75172 z m 47.35199,-80.56845 c -1.35589,-16.97167 -13.38517,-28.60811 -29.5739,-28.60811 -9.25239,0 -16.57659,3.27915 -22.83894,10.22527 -5.03657,5.5865 -11.128,19.4752 -9.92107,22.62041 0.56386,1.46939 6.55906,1.74409 31.72762,1.45375 l 31.03239,-0.35799 z m 285.74202,80.93497 c -27.50464,-9.51088 -42.60101,-34.84731 -40.22985,-67.51827 1.85173,-25.51414 14.13167,-44.48365 35.28283,-54.50339 8.64604,-4.0958 9.58009,-4.24664 26.29777,-4.24664 16.66395,0 17.67437,0.16158 26.16451,4.18428 20.76293,9.83764 32.35796,28.17701 34.09581,53.92793 1.36828,20.27478 -4.68719,39.37724 -16.47868,51.98329 -12.04533,12.87744 -26.32188,18.59859 -46.23376,18.52763 -8.02721,-0.0285 -14.50595,-0.83587 -18.89863,-2.35483 z m 34.95882,-19.11679 c 23.7598,-11.29508 29.98253,-56.003 10.82426,-77.76796 -10.95238,-12.44255 -25.54689,-15.39139 -40.34444,-8.15162 -14.10496,6.90091 -21.20876,21.22593 -21.20876,42.76806 0,16.12778 3.25595,25.9798 11.56506,34.99412 11.22632,12.17911 24.76992,15.0001 39.16388,8.1574 z m 320.8428,18.83423 c -19.15278,-6.2406 -32.5659,-21.94661 -37.12649,-43.47304 -6.98609,-32.97512 6.81713,-66.15221 32.60701,-78.3733 8.19622,-3.88396 9.68153,-4.1394 24.06862,-4.1394 19.25681,0 25.84821,2.5459 36.56757,14.12408 9.994,10.79472 15.43243,26.04747 15.43243,43.28218 0,12.22943 3.71845,11.2604 -43.20932,11.2604 -27.36294,0 -42.07131,0.48063 -42.99564,1.40496 -1.83496,1.83496 0.23248,13.4664 3.53026,19.86145 3.17784,6.16242 9.84603,12.3624 17.34137,16.12372 9.01368,4.52328 26.64338,5.1504 41.21305,1.46604 6.11329,-1.54592 11.61903,-2.49929 12.23497,-2.11862 1.38011,0.85296 3.86778,9.5403 3.87787,13.54221 0.007,2.46243 -1.47095,3.42572 -8.99256,5.86424 -13.30264,4.31273 -42.95881,4.95159 -54.54914,1.17508 z m 47.69042,-76.31908 c 0.65771,-7.75867 -3.22421,-19.0438 -8.53975,-24.82594 -6.96638,-7.57791 -22.2582,-10.43842 -32.64436,-6.10648 -2.72644,1.13717 -6.96075,3.98717 -9.40956,6.33333 -6.66765,6.38816 -13.64475,21.53918 -11.50972,24.99374 1.26928,2.05374 61.92852,1.66826 62.10339,-0.39465 z m 185.62433,77.15435 c -17.2948,-5.6366 -31.4968,-22.79724 -35.8453,-43.31292 -7.1261,-33.61999 5.9001,-66.70915 31.1561,-79.14261 8.3918,-4.13128 9.6559,-4.36548 23.5622,-4.36548 16.1476,0 21.4188,1.75346 31.3614,10.43244 l 4.6667,4.07356 0.3567,-33.8112 c 0.2343,-22.21538 0.8619,-34.42 1.8299,-35.58634 1.8961,-2.28469 18.6301,-2.42504 20.88,-0.17513 1.2128,1.21276 1.6,23.33099 1.6,91.38941 v 89.78943 l -10.3333,-0.38943 -10.3333,-0.38941 -0.3999,-7.66667 c -0.2199,-4.21667 -0.7577,-7.66667 -1.1951,-7.66667 -0.4373,0 -3.727,2.74244 -7.3105,6.09431 -9.6396,9.01676 -16.5999,11.67909 -31.7612,12.14885 -8.096,0.25084 -14.6758,-0.26232 -18.2344,-1.42214 z m 36.0159,-20.3264 c 7.1628,-3.60266 14.0844,-11.31495 16.8937,-18.8236 3.366,-8.99642 3.7728,-36.11742 0.6964,-46.42902 -5.0869,-17.05053 -22.9055,-26.70554 -40.2985,-21.83579 -8.927,2.49938 -19.0906,12.71701 -23.1375,23.26046 -4.4056,11.47776 -4.4035,32.58617 0,43.8758 3.9448,10.10399 12.2787,18.60236 20.9537,21.36725 7.517,2.39586 18.5593,1.768 24.888,-1.4151 z m 125.7088,20.76021 c -18.8675,-4.689 -35.0015,-21.00303 -40.0876,-40.53496 -2.4128,-9.26564 -2.7166,-29.4848 -0.5959,-39.65424 3.8245,-18.33973 16.4263,-35.3228 31.6534,-42.65848 7.6586,-3.68949 10.6407,-4.35005 21.7858,-4.82578 20.948,-0.89415 34.9247,5.48406 44.3688,20.24754 7.1124,11.11853 9.3852,19.55513 9.3852,34.83776 v 13.33333 l -42.6667,0.66667 -42.6666,0.66667 0.2347,6.55324 c 0.3198,8.9276 6.2037,20.12 13.5046,25.68864 10.8036,8.24014 28.6519,10.6432 46.9273,6.31817 14.9991,-3.54965 14.8675,-3.58624 16.9934,4.72173 2.1853,8.54058 1.5832,9.34922 -9.6368,12.94027 -7.9165,2.53371 -41.2146,3.68388 -49.1996,1.69944 z m 44.2553,-78.91497 c 0.9696,-5.04287 -3.8965,-17.22983 -9.1596,-22.93959 -12.6858,-13.76244 -35.8472,-11.12513 -46.7094,5.31863 -3.9428,5.96884 -8.205,17.67112 -7.092,19.47193 0.4084,0.66084 14.4889,1.03195 31.6249,0.83352 28.1594,-0.32608 30.9282,-0.56328 31.3361,-2.68449 z M 317.32793,788.33331 c -0.003,-24.75 -0.39692,-52.67693 -0.87546,-62.05983 l -0.87005,-17.05986 10.54212,0.39319 10.54213,0.39317 0.36984,7.33334 c 0.55754,11.05458 1.169,11.70338 5.45452,5.7874 8.25873,-11.40084 17.11994,-16.45407 28.85341,-16.45407 h 7.43008 l -0.38726,11 -0.38725,11 -8,0.70804 c -9.59555,0.84925 -15.04012,3.55421 -20.50947,10.18946 -7.95433,9.64999 -8.55168,13.26086 -9.17081,55.43583 l -0.56275,38.33333 h -11.21181 -11.21183 l -0.005,-45 z m 97.33387,2 c -0.003,-23.65 -0.39724,-51.57694 -0.87679,-62.05986 l -0.87192,-19.05987 10.54347,0.3932 10.54345,0.3932 0.39425,9 c 0.21684,4.95 0.96684,9 1.66667,9 0.69983,0 1.27241,-0.5351 1.27241,-1.18913 0,-0.65401 2.71324,-4.20691 6.02943,-7.89529 7.94677,-8.83874 15.58629,-12.52052 24.87561,-11.98855 l 7.09496,0.40631 v 10.66666 10.66667 l -8,0.77844 c -9.75032,0.94876 -15.14413,3.61 -20.50946,10.11906 -7.95434,9.64999 -8.55168,13.26086 -9.17082,55.43583 l -0.56274,38.33333 H 425.8785 414.66668 l -0.005,-43 z m 341.37316,40.04836 c -0.7069,-1.6766 -13.38177,-40.16485 -28.16636,-85.52946 -21.65404,-66.44261 -26.52337,-82.70768 -25.0415,-83.64625 2.31158,-1.4641 19.92161,-1.53622 22.19872,-0.0909 1.74681,1.10871 31.29613,92.82805 39.80476,123.55161 2.64017,9.53334 5.30233,17.8723 5.91589,18.53103 0.62016,0.66579 1.8308,-1.70276 2.72606,-5.33333 3.31097,-13.42726 45.17296,-135.695 46.81618,-136.73767 2.27402,-1.4429 19.88786,-1.39642 22.184,0.0585 1.42976,0.90598 -4.54414,18.8877 -28.67501,86.31291 l -30.48103,85.16854 -12.99821,0.38169 c -12.4488,0.36556 -13.05254,0.25285 -14.2835,-2.66667 z m 250.63174,-36.83541 c 0,-21.88288 -0.3953,-49.80983 -0.8784,-62.05989 l -0.8784,-22.27285 10.545,0.39324 10.5451,0.39322 0.3943,9 c 0.2168,4.95 0.9668,9 1.6666,9 0.6999,0 1.2725,-0.5351 1.2725,-1.18913 0,-0.65401 2.7132,-4.20691 6.0294,-7.89529 7.9468,-8.83874 15.5863,-12.52052 24.8756,-11.98855 l 7.095,0.40631 v 10.66666 10.66667 l -8,0.70804 c -9.5956,0.84925 -15.0402,3.55421 -20.5095,10.18946 -8.0086,9.7158 -8.5926,13.24424 -9.1752,55.43583 l -0.5294,38.33333 h -11.2263 -11.2263 z M 543.53311,554.63969 c -36.72539,-9.27322 -66.21073,-37.84852 -77.70466,-75.30637 l -3.6822,-12 -0.50737,-49.81142 c -0.39342,-38.6223 -0.1442,-49.69035 1.10944,-49.27247 0.88926,0.29641 3.32706,4.41156 5.41733,9.14475 52.09319,117.95907 74.51483,168.39738 75.1339,169.01646 0.42018,0.42017 1.619,-0.1004 2.66406,-1.15668 1.04506,-1.05636 32.56208,-49.57039 70.03782,-107.80896 37.47575,-58.23858 73.01231,-112.23858 78.97016,-119.99999 63.98762,-83.35815 100.0316,-117.98201 131.29935,-126.12623 31.99148,-8.33272 69.59057,10.14653 117.99331,57.99151 l 20.93089,20.6897 0.40244,97.33333 c 0.40188,97.1984 0.39834,97.34748 -2.55933,107.54223 -11.73463,40.44782 -39.38803,67.72954 -79.7049,78.6336 -10.60969,2.86949 -11.51776,2.88726 -170,3.32917 -155.22798,0.43283 -159.60303,0.37619 -169.80024,-2.19863 z m -4.05343,-109.86661 c -11.88917,-4.40261 -25.81129,-16.76137 -42.45997,-37.69198 -7.58288,-9.53318 -31.65694,-43.37676 -34.0925,-47.92763 -0.96179,-1.79712 -1.55508,-38.95333 -1.84001,-115.23624 -0.46352,-124.09567 -0.85648,-117.19704 7.85594,-137.91409 14.00397,-33.299602 46.84906,-58.995261 82.39021,-64.456213 14.67921,-2.255484 309.42787,-3.663708 322.12536,-1.539023 42.91254,7.1806 76.34262,37.799515 88.06415,80.658756 2.6593,9.7236 2.96747,14.5863 3.48564,55 0.38534,30.05381 0.1236,44.33333 -0.81264,44.33333 -0.75957,0 -24.33309,-32.84999 -52.38558,-72.99999 -28.05249,-40.15 -53.91573,-76.089596 -57.47386,-79.86577 -16.39088,-17.395329 -22.72649,-13.438263 -53.61397,33.4859 -24.84004,37.73691 -53.52021,82.82513 -118.9563,187.01173 -27.73804,44.16419 -55.38263,87.4226 -61.43242,96.1298 -20.76769,29.89009 -42.06882,52.32221 -56.16313,59.14514 -7.46803,3.61522 -17.84901,4.39987 -24.69092,1.86628 z"
       id="path22"
       inkscape:connector-curvature="0" />
    <path
       style="fill:#f09064;stroke-width:1.33333337"
       d="M 77.009611,834.71219 C 44.407958,828.75727 21.120653,807.56005 12.508274,775.99998 9.208001,763.90613 9.1267604,734.6736 12.360054,722.66665 c 7.850897,-29.15456 27.556687,-50.02456 56.306614,-59.63319 9.641001,-3.22214 12.589793,-3.56834 30.666668,-3.60041 19.630744,-0.0348 34.966894,2.33383 38.593824,5.96076 0.82354,0.82353 0.58862,4.03289 -0.65476,8.94524 -2.23052,8.8124 -2.13625,8.78521 -17.93906,5.17363 -26.514294,-6.05962 -52.886649,0.59361 -68.722055,17.33722 -12.028575,12.71844 -17.597482,29.40059 -17.467982,52.32687 0.205907,36.4531 18.867438,60.53216 51.459192,66.39801 12.573957,2.26305 27.052865,1.46108 40.389935,-2.23719 4.90415,-1.35988 9.34636,-2.20692 9.87157,-1.88232 1.77434,1.09659 4.31366,15.23372 2.97648,16.5709 -5.06142,5.06142 -45.43239,9.49868 -60.830869,6.68602 z m 134.687279,-0.69042 c -28.15002,-7.17436 -43.73227,-28.80658 -43.67718,-60.63526 0.0603,-34.83505 18.32483,-60.12661 47.31363,-65.5169 34.44563,-6.40496 60.46073,17.47404 61.05504,56.04181 0.0791,5.13377 -0.32505,9.80388 -0.89815,10.37801 -0.57309,0.57414 -20.04284,1.34388 -43.2661,1.71055 L 190,776.66665 l 0.22416,6.43 c 0.29584,8.48621 5.83028,19.60085 12.67923,25.46329 10.35322,8.86196 26.35142,11.72867 45.09662,8.0808 6.23333,-1.21303 12.86845,-2.50467 14.74472,-2.87032 3.16856,-0.61752 3.52666,-0.16541 5.03093,6.35143 1.00125,4.33768 1.145,7.49081 0.37652,8.25929 -5.4804,5.4804 -42.55113,9.18425 -56.45529,5.64063 z m 40.86073,-74.83111 c 4.45844,-1.71087 1.31155,-16.74029 -5.32768,-25.44476 -10.39535,-13.62901 -33.81773,-14.0702 -46.08324,-0.86802 -6.72544,7.23901 -12.86123,22.87423 -10.07144,25.66402 1.5587,1.55871 57.57084,2.14975 61.48236,0.64876 z m 290.24857,74.69929 c -10.64864,-2.86357 -19.58284,-8.24033 -26.78303,-16.11848 -11.38105,-12.45269 -15.99149,-25.64888 -15.99149,-45.77149 0,-21.43345 5.7151,-36.23461 18.8163,-48.73104 9.49903,-9.06054 18.90291,-13.51374 32.8209,-15.5423 38.67997,-5.63767 68.33114,21.17206 68.33114,61.78305 0,21.5018 -4.81418,35.28374 -16.66497,47.70805 -15.13497,15.86744 -39.03816,22.45139 -60.52885,16.67221 z m 31.56741,-18.6603 c 8.34716,-4.15958 12.73357,-9.12296 18.17261,-20.563 3.84944,-8.0966 4.11618,-9.6314 4.05522,-23.33334 -0.0832,-18.71457 -3.13918,-27.39805 -13.1398,-37.33718 -17.90623,-17.79613 -44.92826,-11.58144 -56.24932,12.93654 -3.60086,7.79836 -3.87896,9.54776 -3.87896,24.40064 0,14.7386 0.29476,16.63071 3.73885,24 4.69291,10.04136 10.39124,16.10772 18.92781,20.15026 9.2378,4.3746 19.26543,4.28486 28.37359,-0.25392 z m 328.43753,19.3282 c -15.75198,-3.09351 -31.33386,-14.45115 -38.07398,-27.75214 -7.38062,-14.56497 -9.52184,-35.65522 -5.39637,-53.15276 7.49724,-31.79845 34.13155,-50.89253 64.0699,-45.93158 20.80102,3.44684 33.10926,15.05777 39.77398,37.52061 2.92454,9.85691 2.94966,28.832 0.0396,29.94868 -1.15993,0.44513 -20.7435,0.80932 -43.51901,0.80932 h -41.41 l 0.77978,6.58405 c 3.19259,26.9564 26.10029,40.34198 58.25833,34.04188 17.79733,-3.48668 17.58285,-3.52078 19.52286,3.10431 0.9229,3.15163 1.3826,6.5 1.02158,7.44081 -0.36103,0.94083 -3.78122,2.68492 -7.60043,3.87578 -14.89167,4.6433 -34.36585,6.0838 -47.46624,3.51104 z m 39.07984,-75.36719 c 2.62691,-1.00804 2.70564,-6.11789 0.22145,-14.37223 -7.45349,-24.76607 -37.54668,-29.6267 -54.32137,-8.77394 -5.20687,6.4727 -9.76628,19.57546 -7.68456,22.08377 1.24652,1.50197 7.29421,1.87172 30.61441,1.87172 15.98356,0 30.0101,-0.36419 31.17007,-0.80932 z m 191.10363,75.44652 c -18.8343,-4.75784 -33.6141,-20.19528 -38.9507,-40.68381 -2.6597,-10.21134 -2.6609,-32.35754 0,-42.56466 3.0775,-11.81509 9.497,-22.67425 18.128,-30.66502 10.6237,-9.83568 19.5317,-13.19496 35.1638,-13.26055 13.6057,-0.0571 20.8586,2.42851 30.7592,10.54132 4.6121,3.77926 5.7841,4.24012 6.4395,2.53212 0.4411,-1.14841 0.8017,-17.03896 0.8017,-35.31232 V 651.99998 H 1196 h 10.6667 l 0.2778,84 c 0.1528,46.2 0.3028,86.85 0.3333,90.33333 l 0.056,6.33334 h -9.3333 -9.3334 l -0.6741,-7.56303 c -0.3708,-4.15967 -1.1346,-8.02349 -1.6974,-8.58628 -0.5628,-0.56279 -3.8594,1.76087 -7.3259,5.16368 -8.6206,8.46245 -19.1199,13.05799 -31.3158,13.70695 -5.3094,0.2825 -11.9059,-0.0553 -14.6589,-0.75079 z m 28.5963,-18.87189 c 7.4648,-2.2365 16.148,-10.4208 19.8561,-18.71507 2.8205,-6.30915 3.1554,-9.01241 3.1858,-25.71691 0.022,-12.0145 -0.5845,-20.41098 -1.7014,-23.5614 -4.738,-13.36415 -17.47,-22.82674 -30.8402,-22.92089 -15.083,-0.10626 -26.1136,7.33239 -32.8494,22.15232 -4.848,10.66648 -6.1433,30.91964 -2.7287,42.66556 6.2675,21.55963 24.6672,32.21155 45.0778,26.09639 z m 130.744,18.30541 c -21.9444,-5.01112 -37.494,-21.34825 -42.4145,-44.56263 -5.0556,-23.85153 1.613,-50.43425 16.545,-65.95299 12.2645,-12.74634 30.887,-18.79982 48.5282,-15.77468 16.4292,2.81729 27.6456,11.027 35.0626,25.66362 6.2853,12.40367 9.6585,37.58643 5.4972,41.04007 -1.1982,0.99432 -15.4739,1.59257 -43.6667,1.82992 l -41.8867,0.35264 0.3871,5.92914 c 0.8735,13.38066 8.7076,24.81195 21.2287,30.97607 8.2409,4.05696 9.9256,4.39655 21.6601,4.36592 8.1871,-0.0213 16.2004,-0.94747 22.4733,-2.59727 8.382,-2.20446 9.9155,-2.29509 10.9346,-0.64624 1.9905,3.22072 3.0248,12.13051 1.5762,13.579 -5.5794,5.57951 -40.8624,9.23708 -55.9251,5.79743 z m 42.0581,-75.74084 c 1.8156,-2.18777 -0.1107,-12.57536 -3.5999,-19.41539 -3.8161,-7.48026 -10.7346,-12.98129 -18.7421,-14.90226 -16.9153,-4.05792 -32.0685,4.83259 -38.9055,22.82613 -2.8925,7.61221 -3.139,11.33969 -0.8121,12.2786 0.9166,0.36988 14.9432,0.71988 31.17,0.77777 22.1158,0.0789 29.8505,-0.31293 30.8896,-1.56485 z M 318.27339,832.49559 c -0.51702,-0.51704 -0.94005,-28.46746 -0.94005,-62.11209 v -61.17202 l 9,0.39425 9,0.39425 0.34203,5.33334 c 0.90393,14.09501 2.66434,17.04057 6.17574,10.33333 4.97077,-9.49484 16.40093,-17.26945 27.28443,-18.55845 8.37308,-0.99167 9.78391,0.80153 9.26444,11.77537 l -0.39997,8.44975 -7.35929,0.79158 c -13.46451,1.44828 -21.27292,7.15707 -27.18493,19.87508 -2.57452,5.53836 -2.84041,9.02633 -3.45578,45.33333 l -0.66667,39.33334 -10.05995,0.38449 c -5.53297,0.21148 -10.48297,-0.0385 -11,-0.55555 z m 97.19822,-0.27189 c -0.53993,-0.87363 -1.19988,-97.15548 -0.83132,-121.28464 0.0196,-1.28094 2.35317,-1.62565 9.02639,-1.33333 l 9,0.39425 0.34841,6.66667 c 0.43899,8.39943 1.38799,12.66667 2.81697,12.66667 0.61303,0 2.82272,-2.70235 4.91044,-6.0052 5.87787,-9.29904 17.9972,-16.46124 28.09426,-16.60295 5.96265,-0.0837 7.35949,2.37889 6.89656,12.1584 l -0.39998,8.44975 -7.35929,0.79158 c -13.46451,1.44828 -21.27292,7.15707 -27.18492,19.87508 -2.57452,5.53836 -2.84041,9.02633 -3.45579,45.33333 l -0.66666,39.33334 -10.22123,0.3874 c -5.62168,0.21306 -10.55991,-0.16059 -10.97384,-0.83035 z m 342.18989,-0.55705 c -0.73244,-0.91667 -2.22688,-4.66667 -3.32099,-8.33334 -1.09411,-3.66666 -13.16831,-40.80912 -26.83156,-82.53878 -13.66324,-41.72967 -24.84227,-76.70303 -24.84227,-77.71857 0,-1.46091 2.41823,-1.76602 11.58102,-1.46122 l 11.58101,0.38524 17.6278,55.70367 c 9.69529,30.63701 19.59708,62.89926 22.00399,71.69389 2.40689,8.79463 4.97083,15.792 5.69763,15.54973 0.7268,-0.24226 4.18932,-10.0045 7.69448,-21.69389 3.50517,-11.68937 7.56113,-24.5534 9.01326,-28.58673 1.45212,-4.03334 8.92284,-25.63333 16.6016,-48 7.67875,-22.36667 14.37908,-41.71667 14.88962,-43 0.78097,-1.96315 2.70362,-2.33333 12.11892,-2.33333 7.71864,0 11.19068,0.48884 11.19068,1.57558 0,2.2833 -58.8506,166.77436 -60.37711,168.75775 -0.84288,1.09514 -5.05713,1.66666 -12.28956,1.66666 -7.20632,0 -11.46663,-0.57548 -12.33852,-1.66666 z m 249.7892,0.5232 c -0.5096,-0.82456 -1.2114,-104.18809 -0.8233,-121.25079 0.029,-1.28001 2.371,-1.62544 9.0393,-1.33333 l 9,0.39425 0.6667,9.22883 c 0.3666,5.07587 1.2666,9.40125 2,9.61199 0.7333,0.21073 3.5147,-2.75956 6.1809,-6.60064 5.6904,-8.19802 15.1719,-13.97334 24.8155,-15.11548 8.5277,-1.00998 9.9252,0.73765 9.4035,11.75889 l -0.3999,8.44975 -7.557,0.81236 c -9.7978,1.05324 -16.7329,4.728 -22.0755,11.69722 -7.5301,9.82276 -8.3675,15.25599 -8.3675,54.29003 0,19.24025 -0.3642,35.93136 -0.8094,37.09133 -0.6361,1.65789 -2.9011,2.10905 -10.5879,2.10905 -5.3783,0 -10.0967,-0.51456 -10.4854,-1.14346 z M 543.53311,554.63969 c -36.72539,-9.27322 -66.21073,-37.84852 -77.70466,-75.30637 l -3.6822,-12 -0.50737,-49.81142 c -0.39342,-38.6223 -0.1442,-49.69035 1.10944,-49.27247 0.88926,0.29641 3.32706,4.41156 5.41733,9.14475 52.09319,117.95907 74.51483,168.39738 75.1339,169.01646 0.42018,0.42017 1.619,-0.1004 2.66406,-1.15668 1.04506,-1.05636 32.56208,-49.57039 70.03782,-107.80896 37.47575,-58.23858 73.01231,-112.23858 78.97016,-119.99999 63.98762,-83.35815 100.0316,-117.98201 131.29935,-126.12623 31.99148,-8.33272 69.59057,10.14653 117.99331,57.99151 l 20.93089,20.6897 0.40244,97.33333 c 0.40188,97.1984 0.39834,97.34748 -2.55933,107.54223 -11.73463,40.44782 -39.38803,67.72954 -79.7049,78.6336 -10.60969,2.86949 -11.51776,2.88726 -170,3.32917 -155.22798,0.43283 -159.60303,0.37619 -169.80024,-2.19863 z m -4.05343,-109.86661 c -11.88917,-4.40261 -25.81129,-16.76137 -42.45997,-37.69198 -7.58288,-9.53318 -31.65694,-43.37676 -34.0925,-47.92763 -0.96179,-1.79712 -1.55508,-38.95333 -1.84001,-115.23624 -0.46352,-124.09567 -0.85648,-117.19704 7.85594,-137.91409 14.00397,-33.299602 46.84906,-58.995261 82.39021,-64.456213 14.67921,-2.255484 309.42787,-3.663708 322.12536,-1.539023 42.91254,7.1806 76.34262,37.799515 88.06415,80.658756 2.6593,9.7236 2.96747,14.5863 3.48564,55 0.38534,30.05381 0.1236,44.33333 -0.81264,44.33333 -0.75957,0 -24.33309,-32.84999 -52.38558,-72.99999 -28.05249,-40.15 -53.91573,-76.089596 -57.47386,-79.86577 -16.39088,-17.395329 -22.72649,-13.438263 -53.61397,33.4859 -24.84004,37.73691 -53.52021,82.82513 -118.9563,187.01173 -27.73804,44.16419 -55.38263,87.4226 -61.43242,96.1298 -20.76769,29.89009 -42.06882,52.32221 -56.16313,59.14514 -7.46803,3.61522 -17.84901,4.39987 -24.69092,1.86628 z"
       id="path20"
       inkscape:connector-curvature="0" />
    <path
       style="fill:#939362;stroke-width:1.33333337"
       d="M 77.009611,834.71219 C 44.407958,828.75727 21.120653,807.56005 12.508274,775.99998 9.208001,763.90613 9.1267604,734.6736 12.360054,722.66665 c 7.850897,-29.15456 27.556687,-50.02456 56.306614,-59.63319 9.641001,-3.22214 12.589793,-3.56834 30.666668,-3.60041 19.630744,-0.0348 34.966894,2.33383 38.593824,5.96076 0.82354,0.82353 0.58862,4.03289 -0.65476,8.94524 -2.23052,8.8124 -2.13625,8.78521 -17.93906,5.17363 -26.514294,-6.05962 -52.886649,0.59361 -68.722055,17.33722 -12.028575,12.71844 -17.597482,29.40059 -17.467982,52.32687 0.205907,36.4531 18.867438,60.53216 51.459192,66.39801 12.573957,2.26305 27.052865,1.46108 40.389935,-2.23719 4.90415,-1.35988 9.34636,-2.20692 9.87157,-1.88232 1.77434,1.09659 4.31366,15.23372 2.97648,16.5709 -5.06142,5.06142 -45.43239,9.49868 -60.830869,6.68602 z m 134.687279,-0.69042 c -28.15002,-7.17436 -43.73227,-28.80658 -43.67718,-60.63526 0.0603,-34.83505 18.32483,-60.12661 47.31363,-65.5169 34.44563,-6.40496 60.46073,17.47404 61.05504,56.04181 0.0791,5.13377 -0.32505,9.80388 -0.89815,10.37801 -0.57309,0.57414 -20.04284,1.34388 -43.2661,1.71055 L 190,776.66665 l 0.22416,6.43 c 0.29584,8.48621 5.83028,19.60085 12.67923,25.46329 10.35322,8.86196 26.35142,11.72867 45.09662,8.0808 6.23333,-1.21303 12.86845,-2.50467 14.74472,-2.87032 3.16856,-0.61752 3.52666,-0.16541 5.03093,6.35143 1.00125,4.33768 1.145,7.49081 0.37652,8.25929 -5.4804,5.4804 -42.55113,9.18425 -56.45529,5.64063 z m 40.86073,-74.83111 c 4.45844,-1.71087 1.31155,-16.74029 -5.32768,-25.44476 -10.39535,-13.62901 -33.81773,-14.0702 -46.08324,-0.86802 -6.72544,7.23901 -12.86123,22.87423 -10.07144,25.66402 1.5587,1.55871 57.57084,2.14975 61.48236,0.64876 z m 290.24857,74.69929 c -10.64864,-2.86357 -19.58284,-8.24033 -26.78303,-16.11848 -11.38105,-12.45269 -15.99149,-25.64888 -15.99149,-45.77149 0,-21.43345 5.7151,-36.23461 18.8163,-48.73104 9.49903,-9.06054 18.90291,-13.51374 32.8209,-15.5423 38.67997,-5.63767 68.33114,21.17206 68.33114,61.78305 0,21.5018 -4.81418,35.28374 -16.66497,47.70805 -15.13497,15.86744 -39.03816,22.45139 -60.52885,16.67221 z m 31.56741,-18.6603 c 8.34716,-4.15958 12.73357,-9.12296 18.17261,-20.563 3.84944,-8.0966 4.11618,-9.6314 4.05522,-23.33334 -0.0832,-18.71457 -3.13918,-27.39805 -13.1398,-37.33718 -17.90623,-17.79613 -44.92826,-11.58144 -56.24932,12.93654 -3.60086,7.79836 -3.87896,9.54776 -3.87896,24.40064 0,14.7386 0.29476,16.63071 3.73885,24 4.69291,10.04136 10.39124,16.10772 18.92781,20.15026 9.2378,4.3746 19.26543,4.28486 28.37359,-0.25392 z m 328.43753,19.3282 c -15.75198,-3.09351 -31.33386,-14.45115 -38.07398,-27.75214 -7.38062,-14.56497 -9.52184,-35.65522 -5.39637,-53.15276 7.49724,-31.79845 34.13155,-50.89253 64.0699,-45.93158 20.80102,3.44684 33.10926,15.05777 39.77398,37.52061 2.92454,9.85691 2.94966,28.832 0.0396,29.94868 -1.15993,0.44513 -20.7435,0.80932 -43.51901,0.80932 h -41.41 l 0.77978,6.58405 c 3.19259,26.9564 26.10029,40.34198 58.25833,34.04188 17.79733,-3.48668 17.58285,-3.52078 19.52286,3.10431 0.9229,3.15163 1.3826,6.5 1.02158,7.44081 -0.36103,0.94083 -3.78122,2.68492 -7.60043,3.87578 -14.89167,4.6433 -34.36585,6.0838 -47.46624,3.51104 z m 39.07984,-75.36719 c 2.62691,-1.00804 2.70564,-6.11789 0.22145,-14.37223 -7.45349,-24.76607 -37.54668,-29.6267 -54.32137,-8.77394 -5.20687,6.4727 -9.76628,19.57546 -7.68456,22.08377 1.24652,1.50197 7.29421,1.87172 30.61441,1.87172 15.98356,0 30.0101,-0.36419 31.17007,-0.80932 z m 191.10363,75.44652 c -18.8343,-4.75784 -33.6141,-20.19528 -38.9507,-40.68381 -2.6597,-10.21134 -2.6609,-32.35754 0,-42.56466 3.0775,-11.81509 9.497,-22.67425 18.128,-30.66502 10.6237,-9.83568 19.5317,-13.19496 35.1638,-13.26055 13.6057,-0.0571 20.8586,2.42851 30.7592,10.54132 4.6121,3.77926 5.7841,4.24012 6.4395,2.53212 0.4411,-1.14841 0.8017,-17.03896 0.8017,-35.31232 V 651.99998 H 1196 h 10.6667 l 0.2778,84 c 0.1528,46.2 0.3028,86.85 0.3333,90.33333 l 0.056,6.33334 h -9.3333 -9.3334 l -0.6741,-7.56303 c -0.3708,-4.15967 -1.1346,-8.02349 -1.6974,-8.58628 -0.5628,-0.56279 -3.8594,1.76087 -7.3259,5.16368 -8.6206,8.46245 -19.1199,13.05799 -31.3158,13.70695 -5.3094,0.2825 -11.9059,-0.0553 -14.6589,-0.75079 z m 28.5963,-18.87189 c 7.4648,-2.2365 16.148,-10.4208 19.8561,-18.71507 2.8205,-6.30915 3.1554,-9.01241 3.1858,-25.71691 0.022,-12.0145 -0.5845,-20.41098 -1.7014,-23.5614 -4.738,-13.36415 -17.47,-22.82674 -30.8402,-22.92089 -15.083,-0.10626 -26.1136,7.33239 -32.8494,22.15232 -4.848,10.66648 -6.1433,30.91964 -2.7287,42.66556 6.2675,21.55963 24.6672,32.21155 45.0778,26.09639 z m 130.744,18.30541 c -21.9444,-5.01112 -37.494,-21.34825 -42.4145,-44.56263 -5.0556,-23.85153 1.613,-50.43425 16.545,-65.95299 12.2645,-12.74634 30.887,-18.79982 48.5282,-15.77468 16.4292,2.81729 27.6456,11.027 35.0626,25.66362 6.2853,12.40367 9.6585,37.58643 5.4972,41.04007 -1.1982,0.99432 -15.4739,1.59257 -43.6667,1.82992 l -41.8867,0.35264 0.3871,5.92914 c 0.8735,13.38066 8.7076,24.81195 21.2287,30.97607 8.2409,4.05696 9.9256,4.39655 21.6601,4.36592 8.1871,-0.0213 16.2004,-0.94747 22.4733,-2.59727 8.382,-2.20446 9.9155,-2.29509 10.9346,-0.64624 1.9905,3.22072 3.0248,12.13051 1.5762,13.579 -5.5794,5.57951 -40.8624,9.23708 -55.9251,5.79743 z m 42.0581,-75.74084 c 1.8156,-2.18777 -0.1107,-12.57536 -3.5999,-19.41539 -3.8161,-7.48026 -10.7346,-12.98129 -18.7421,-14.90226 -16.9153,-4.05792 -32.0685,4.83259 -38.9055,22.82613 -2.8925,7.61221 -3.139,11.33969 -0.8121,12.2786 0.9166,0.36988 14.9432,0.71988 31.17,0.77777 22.1158,0.0789 29.8505,-0.31293 30.8896,-1.56485 z M 318.27339,832.49559 c -0.51702,-0.51704 -0.94005,-28.46746 -0.94005,-62.11209 v -61.17202 l 9,0.39425 9,0.39425 0.34203,5.33334 c 0.90393,14.09501 2.66434,17.04057 6.17574,10.33333 4.97077,-9.49484 16.40093,-17.26945 27.28443,-18.55845 8.37308,-0.99167 9.78391,0.80153 9.26444,11.77537 l -0.39997,8.44975 -7.35929,0.79158 c -13.46451,1.44828 -21.27292,7.15707 -27.18493,19.87508 -2.57452,5.53836 -2.84041,9.02633 -3.45578,45.33333 l -0.66667,39.33334 -10.05995,0.38449 c -5.53297,0.21148 -10.48297,-0.0385 -11,-0.55555 z m 97.19822,-0.27189 c -0.53993,-0.87363 -1.19988,-97.15548 -0.83132,-121.28464 0.0196,-1.28094 2.35317,-1.62565 9.02639,-1.33333 l 9,0.39425 0.34841,6.66667 c 0.43899,8.39943 1.38799,12.66667 2.81697,12.66667 0.61303,0 2.82272,-2.70235 4.91044,-6.0052 5.87787,-9.29904 17.9972,-16.46124 28.09426,-16.60295 5.96265,-0.0837 7.35949,2.37889 6.89656,12.1584 l -0.39998,8.44975 -7.35929,0.79158 c -13.46451,1.44828 -21.27292,7.15707 -27.18492,19.87508 -2.57452,5.53836 -2.84041,9.02633 -3.45579,45.33333 l -0.66666,39.33334 -10.22123,0.3874 c -5.62168,0.21306 -10.55991,-0.16059 -10.97384,-0.83035 z m 342.18989,-0.55705 c -0.73244,-0.91667 -2.22688,-4.66667 -3.32099,-8.33334 -1.09411,-3.66666 -13.16831,-40.80912 -26.83156,-82.53878 -13.66324,-41.72967 -24.84227,-76.70303 -24.84227,-77.71857 0,-1.46091 2.41823,-1.76602 11.58102,-1.46122 l 11.58101,0.38524 17.6278,55.70367 c 9.69529,30.63701 19.59708,62.89926 22.00399,71.69389 2.40689,8.79463 4.97083,15.792 5.69763,15.54973 0.7268,-0.24226 4.18932,-10.0045 7.69448,-21.69389 3.50517,-11.68937 7.56113,-24.5534 9.01326,-28.58673 1.45212,-4.03334 8.92284,-25.63333 16.6016,-48 7.67875,-22.36667 14.37908,-41.71667 14.88962,-43 0.78097,-1.96315 2.70362,-2.33333 12.11892,-2.33333 7.71864,0 11.19068,0.48884 11.19068,1.57558 0,2.2833 -58.8506,166.77436 -60.37711,168.75775 -0.84288,1.09514 -5.05713,1.66666 -12.28956,1.66666 -7.20632,0 -11.46663,-0.57548 -12.33852,-1.66666 z m 249.7892,0.5232 c -0.5096,-0.82456 -1.2114,-104.18809 -0.8233,-121.25079 0.029,-1.28001 2.371,-1.62544 9.0393,-1.33333 l 9,0.39425 0.6667,9.22883 c 0.3666,5.07587 1.2666,9.40125 2,9.61199 0.7333,0.21073 3.5147,-2.75956 6.1809,-6.60064 5.6904,-8.19802 15.1719,-13.97334 24.8155,-15.11548 8.5277,-1.00998 9.9252,0.73765 9.4035,11.75889 l -0.3999,8.44975 -7.557,0.81236 c -9.7978,1.05324 -16.7329,4.728 -22.0755,11.69722 -7.5301,9.82276 -8.3675,15.25599 -8.3675,54.29003 0,19.24025 -0.3642,35.93136 -0.8094,37.09133 -0.6361,1.65789 -2.9011,2.10905 -10.5879,2.10905 -5.3783,0 -10.0967,-0.51456 -10.4854,-1.14346 z M 547.23104,554.02739 c -32.4244,-7.41811 -59.36293,-28.98566 -73.31072,-58.69407 -9.96156,-21.21787 -10.26884,-23.37959 -10.89815,-76.66666 -0.36129,-30.59322 -0.1016,-46.86179 0.73425,-46 0.71128,0.73333 18.58526,40.48333 39.71994,88.33333 29.8062,67.48276 38.95183,87 40.76753,87 1.36314,0 4.22176,-2.92372 6.84416,-7 123.29883,-191.65681 135.97565,-210.93674 153.34309,-233.2166 28.29093,-36.29308 45.3104,-56.25698 63.53429,-74.52596 32.99403,-33.07562 54.3268,-44.39854 79.07928,-41.97334 12.57727,1.23231 20.92348,3.93256 35.62198,11.5248 19.67557,10.16305 46.2312,31.45442 71,56.9253 l 10.33333,10.62624 0.33334,63.15311 c 0.18333,34.73421 0.26249,78.45312 0.1759,97.15312 -0.15206,32.8453 -0.27957,34.40753 -3.75446,45.99999 -11.47531,38.28239 -39.94623,65.68986 -78.45359,75.52314 -10.78742,2.75468 -13.56728,2.80808 -168.96786,3.24601 -131.3173,0.37005 -159.36831,0.13227 -166.10231,-1.40841 z m -6.77803,-110.53224 c -16.55422,-5.40116 -39.20485,-29.84953 -69.45495,-74.96745 l -8.13877,-12.13895 -0.42964,-111.86105 c -0.47093,-122.61368 -0.81588,-116.2804 7.44735,-136.73809 9.91221,-24.540155 29.72065,-45.073904 54.33597,-56.325543 21.27999,-9.727059 10.06387,-9.080032 182.08214,-10.503815 138.6271,-1.147405 156.2696,-1.061649 167.36871,0.813532 29.57683,4.996975 54.78191,21.110144 70.86159,45.300596 10.88993,16.38293 15.83339,29.94216 18.08048,49.59228 1.61909,14.15858 1.87968,79.33333 0.31719,79.33333 -0.59234,0 -23.80756,-32.54999 -51.58942,-72.33333 -29.46553,-42.19433 -53.48017,-75.244152 -57.63496,-79.319279 -11.21911,-11.004044 -16.29717,-10.995382 -28.02247,0.0478 -11.44321,10.777497 -40.54157,55.534869 -159.67645,245.604809 -48.59937,77.53629 -63.41685,98.36088 -83.2631,117.01855 -16.78531,15.78004 -29.37848,20.6872 -42.28367,16.47661 z"
       id="path18"
       inkscape:connector-curvature="0" />
    <path
       style="fill:#fd4d02;stroke-width:1.33333337"
       d="M 74.666668,832.67107 C 43.593153,826.41451 22.293762,806.53554 13.822584,775.88454 10.564866,764.09723 10.505951,734.7899 13.715603,722.66665 c 3.907563,-14.75935 11.228416,-27.63845 21.60421,-38.00689 10.33392,-10.3266 20.17102,-16.1353 35.346855,-20.87194 13.295107,-4.14962 42.051272,-4.47464 57.000002,-0.64421 10.55227,2.70388 10.57435,2.73747 8.14497,12.38537 -1.29877,5.1579 -1.93358,5.94632 -4.33333,5.3819 -23.6022,-5.5513 -35.623786,-6.25182 -49.825332,-2.90347 -32.158405,7.58211 -50.030813,32.91291 -49.854353,70.65924 0.156205,33.41398 14.485611,55.93533 41.802769,65.70086 8.537623,3.0521 11.695484,3.46571 25.731942,3.37034 11.777704,-0.08 18.386284,-0.80734 25.042594,-2.75606 8.79546,-2.575 9.0789,-2.57949 10.37125,-0.1647 0.73077,1.36545 1.46161,4.7402 1.62408,7.49942 0.28921,4.91142 0.15512,5.06339 -6.3835,7.23452 -15.0161,4.98606 -39.261946,6.3535 -55.321092,3.12004 z m 136.000002,-0.42346 c -26.11912,-6.82711 -41.33333,-28.12526 -41.33333,-57.86188 0,-22.4846 6.61164,-39.77651 19.91969,-52.09741 10.74689,-9.94974 19.54438,-13.29914 35.41364,-13.48279 15.23567,-0.17632 23.52935,2.56576 32.70074,10.81163 6.49196,5.83682 12.32052,15.1357 14.85765,23.70387 2.15147,7.26575 3.6756,22.85468 2.62052,26.8028 l -1.03587,3.87615 -42.57152,0.66667 -42.57152,0.66666 0.0704,6.11908 c 0.14467,12.58026 9.38863,27.51196 20.53638,33.17231 11.32312,5.7494 31.30798,6.5722 46.63445,1.92001 8.33065,-2.52868 9.01017,-2.40726 10.01092,1.7886 0.48099,2.01667 1.17656,4.68547 1.54572,5.93068 0.97105,3.27542 -5.11597,5.97946 -18.85267,8.37494 -14.85802,2.59102 -27.01494,2.46565 -37.94516,-0.39132 z m 43.22428,-71.72362 c 2.99762,-1.15029 2.70942,-9.48605 -0.63724,-18.43077 -8.49894,-22.71548 -36.86096,-27.46706 -53.56795,-8.97442 -5.82689,6.44966 -6.82473,8.26229 -9.46668,17.1965 -3.28484,11.10829 -3.54513,11.01801 31.76711,11.01801 16.38764,0 30.74479,-0.36418 31.90476,-0.80932 z m 291.5028,72.7741 c -20.2603,-4.27146 -36.49404,-20.33247 -42.19566,-41.74664 -2.21908,-8.33447 -2.41414,-27.47483 -0.37862,-37.15251 3.59698,-17.1016 15.88658,-33.13729 30.78001,-40.16228 22.74952,-10.7306 51.5372,-6.56033 67.93943,9.8419 14.43778,14.43778 20.70039,40.13779 15.64165,64.18913 -4.25917,20.24992 -17.86123,35.94582 -36.86977,42.5454 -8.82132,3.06266 -26.28268,4.30537 -34.91704,2.485 z m 28.65706,-16.45223 c 22.46982,-10.46333 31.39448,-45.02164 18.69912,-72.40708 -11.71561,-25.27197 -44.55653,-29.40742 -61.10525,-7.69461 -9.6196,12.62144 -13.18636,35.47654 -8.22128,52.68048 7.03268,24.36817 30.21712,36.9255 50.62741,27.42121 z m 328.93036,16.40768 c -15.43835,-3.04377 -30.6925,-14.28667 -37.50692,-27.64405 -6.79611,-13.32148 -8.77946,-35.07675 -4.75452,-52.15208 4.39516,-18.64592 18.04696,-35.54371 33.56752,-41.54885 10.12489,-3.91748 28.48088,-4.28866 38.67309,-0.782 18.72839,6.44354 31.66116,28.47774 30.76468,52.41529 l -0.39166,10.45813 -42.66667,0.66667 -42.66667,0.66666 0.25037,7.54727 c 0.47146,14.21192 10.44679,27.87392 24.40149,33.41977 6.04526,2.40251 9.83045,2.89375 21.34814,2.77058 8.6833,-0.0929 16.53178,-0.95211 20.66667,-2.26258 8.91664,-2.82592 9.57017,-2.73176 10.58544,1.52496 0.48099,2.01667 1.19031,4.72879 1.57627,6.02692 1.96538,6.61038 -34.70648,12.66703 -53.84723,8.89331 z m 40.75219,-73.52023 c 2.1712,-2.1712 2.01048,-7.20044 -0.5003,-15.65512 -3.0881,-10.39877 -12.29089,-19.22854 -22.3984,-21.4905 -18.43416,-4.12539 -35.76681,7.489 -41.71595,27.9533 -3.15592,10.856 -3.34988,10.79232 32.86949,10.79232 21.66845,0 30.59508,-0.44992 31.74516,-1.6 z m 189.26124,73.5705 c -18.4857,-4.66963 -32.1935,-19.38356 -37.8522,-40.6303 -2.3931,-8.98522 -2.2941,-31.58424 0.1799,-41.08246 5.6809,-21.81059 19.6979,-36.66255 39.3538,-41.69817 15.7252,-4.02859 31.4365,-0.53822 42.4774,9.43658 9.4382,8.5268 9.5132,8.28004 9.5132,-31.28764 v -34.7085 h 9.3333 9.3334 l 0.2727,83.33333 c 0.15,45.83333 0.3,85.88333 0.3333,89 l 0.061,5.66666 -8.3334,0.39696 -8.3333,0.39695 v -5.23028 c 1e-4,-7.21709 -1.403,-13.56363 -2.9985,-13.56363 -0.7326,0 -3.6891,2.67795 -6.5702,5.951 -7.52,8.54318 -19.0973,13.88955 -31.7646,14.66876 -5.5,0.33834 -12.2524,0.0461 -15.0054,-0.64926 z M 1166,815.6861 c 5.4701,-2.86833 13.3773,-11.01411 15.9458,-16.42689 5.7845,-12.18994 6.2388,-42.42704 0.8215,-54.67796 -6.9389,-15.69179 -22.1609,-23.89035 -38.1814,-20.56449 -14.2027,2.94846 -24.6107,13.54614 -29.289,29.82263 -3.4029,11.83936 -2.3274,32.39518 2.2059,42.16059 4.6925,10.1082 9.869,15.81415 17.7761,19.59407 5.6993,2.7245 8.2415,3.1352 16.7211,2.70126 5.5334,-0.28316 11.7867,-1.44861 14,-2.60921 z m 127.3334,17.164 c -22.1022,-4.80137 -37.1968,-20.29667 -42.041,-43.15704 -2.4352,-11.49224 -2.4234,-21.28248 0.04,-32.90967 5.7126,-26.96507 21.7636,-43.63009 45.8547,-47.60865 23.3668,-3.85893 42.8744,5.8378 52.2193,25.95691 5.8197,12.52941 8.6445,34.83988 4.8139,38.0191 -1.1982,0.99432 -15.4739,1.59258 -43.6667,1.82992 l -41.8866,0.35264 0.2636,5.77943 c 0.7249,15.8916 11.4403,30.71488 25.7791,35.66183 9.3162,3.21414 29.0513,3.21014 41.1401,-0.008 4.6839,-1.24703 8.9721,-1.77958 9.5295,-1.18344 0.5573,0.59612 1.4226,3.60328 1.9229,6.68256 l 0.9096,5.59868 -7.246,2.10645 c -16.5804,4.82005 -33.8842,5.86616 -47.6321,2.87963 z m 41.861,-73.56837 c 3.2056,-3.2055 0.2754,-16.35659 -5.5774,-25.03272 -5.5053,-8.16104 -13.6464,-12.14143 -24.881,-12.16495 -11.3134,-0.0237 -18.0576,3.02962 -25.2487,11.4308 -7.5675,8.84096 -12.7297,25.22357 -8.4873,26.93541 0.9167,0.36988 15.2738,0.71988 31.9048,0.77778 25.5355,0.0889 30.5571,-0.21379 32.2896,-1.94632 z M 319.61017,831.1657 c -0.51892,-0.51892 -0.9435,-27.84349 -0.9435,-60.72128 v -59.77777 h 7.82466 7.82466 l 0.64631,10.07097 c 0.78644,12.25435 2.59603,14.85206 5.97987,8.58426 6.76452,-12.52972 17.64716,-20.21823 29.00644,-20.49283 l 6.71807,-0.1624 0.39425,9 0.39425,9 h -4.90622 c -12.62263,0 -24.48494,8.01219 -30.02982,20.28309 -3.063,6.77849 -3.21149,8.54063 -3.85247,45.71691 l -0.66666,38.66666 -8.72318,0.38795 c -4.79773,0.21336 -9.14773,-0.0367 -9.66666,-0.55556 z m 97.19765,-0.27068 c -0.41524,-0.67185 -0.79345,-27.84809 -0.84048,-60.39164 l -0.0855,-59.17006 7.91033,-0.3931 7.91032,-0.39309 0.50583,10.01684 c 0.61758,12.22981 2.62689,15.13024 6.06717,8.75791 6.76452,-12.52972 17.64716,-20.21823 29.00644,-20.49283 l 6.71804,-0.1624 0.39425,9 0.39426,9 -5.06092,0.008 c -12.94374,0.0191 -24.169,7.65887 -29.9099,20.35649 -3.01942,6.67777 -3.17886,8.58369 -3.81769,45.63551 l -0.66667,38.66666 -8.88528,0.39164 c -4.88689,0.2154 -9.22501,-0.15806 -9.64024,-0.82993 z M 758.017,830.33331 c -5.46001,-16.07804 -54.01698,-165.83967 -54.01698,-166.60165 0,-1.53588 19.68757,-1.31589 20.6434,0.23068 1.41954,2.29688 32.5584,101.39453 38.13765,121.37097 2.96982,10.63334 5.64016,20.08334 5.93412,21 0.29396,0.91667 1.3714,1.66667 2.39432,1.66667 1.21243,0 3.13924,-4.52532 5.53522,-13 3.81149,-13.48145 42.38966,-128.3589 43.95736,-130.89548 0.93434,-1.5118 20.73126,-2.07869 20.73126,-0.59366 0,0.74918 -51.01666,143.80711 -57.58952,161.48914 l -2.60208,7 h -11.27937 c -7.83276,0 -11.45233,-0.50928 -11.84538,-1.66667 z m 250.8035,0.58212 c -0.4084,-0.66064 -0.7985,-27.83688 -0.867,-60.39164 l -0.1247,-59.19047 8.0856,-0.39696 8.0856,-0.39695 v 9.14211 c 0,5.76314 0.6949,10.09254 1.8803,11.71358 1.7976,2.45835 1.9882,2.3719 4.3333,-1.96544 6.8383,-12.64733 17.6719,-20.32512 29.0683,-20.60061 l 6.7181,-0.1624 0.3943,9 0.3942,9 -5.0609,0.008 c -12.9437,0.0191 -24.169,7.65887 -29.9099,20.35649 -3.0194,6.67777 -3.1788,8.58369 -3.8177,45.63551 l -0.6666,38.66666 -8.8853,0.39164 c -4.8869,0.2154 -9.2194,-0.14888 -9.6276,-0.80952 z M 547.23104,554.02739 c -32.4244,-7.41811 -59.36293,-28.98566 -73.31072,-58.69407 -9.96156,-21.21787 -10.26884,-23.37959 -10.89815,-76.66666 -0.36129,-30.59322 -0.1016,-46.86179 0.73425,-46 0.71128,0.73333 18.58526,40.48333 39.71994,88.33333 29.8062,67.48276 38.95183,87 40.76753,87 1.36314,0 4.22176,-2.92372 6.84416,-7 123.29883,-191.65681 135.97565,-210.93674 153.34309,-233.2166 28.29093,-36.29308 45.3104,-56.25698 63.53429,-74.52596 32.99403,-33.07562 54.3268,-44.39854 79.07928,-41.97334 12.57727,1.23231 20.92348,3.93256 35.62198,11.5248 19.67557,10.16305 46.2312,31.45442 71,56.9253 l 10.33333,10.62624 0.33334,63.15311 c 0.18333,34.73421 0.26249,78.45312 0.1759,97.15312 -0.15206,32.8453 -0.27957,34.40753 -3.75446,45.99999 -11.47531,38.28239 -39.94623,65.68986 -78.45359,75.52314 -10.78742,2.75468 -13.56728,2.80808 -168.96786,3.24601 -131.3173,0.37005 -159.36831,0.13227 -166.10231,-1.40841 z m -6.77803,-110.53224 c -16.55422,-5.40116 -39.20485,-29.84953 -69.45495,-74.96745 l -8.13877,-12.13895 -0.42964,-111.86105 c -0.47093,-122.61368 -0.81588,-116.2804 7.44735,-136.73809 9.91221,-24.540155 29.72065,-45.073904 54.33597,-56.325543 21.27999,-9.727059 10.06387,-9.080032 182.08214,-10.503815 138.6271,-1.147405 156.2696,-1.061649 167.36871,0.813532 29.57683,4.996975 54.78191,21.110144 70.86159,45.300596 10.88993,16.38293 15.83339,29.94216 18.08048,49.59228 1.61909,14.15858 1.87968,79.33333 0.31719,79.33333 -0.59234,0 -23.80756,-32.54999 -51.58942,-72.33333 -29.46553,-42.19433 -53.48017,-75.244152 -57.63496,-79.319279 -11.21911,-11.004044 -16.29717,-10.995382 -28.02247,0.0478 -11.44321,10.777497 -40.54157,55.534869 -159.67645,245.604809 -48.59937,77.53629 -63.41685,98.36088 -83.2631,117.01855 -16.78531,15.78004 -29.37848,20.6872 -42.28367,16.47661 z"
       id="path16"
       inkscape:connector-curvature="0" />
    <path
       style="fill:#5a590b;stroke-width:1.33333337"
       d="M 74.666668,832.67107 C 43.593153,826.41451 22.293762,806.53554 13.822584,775.88454 10.564866,764.09723 10.505951,734.7899 13.715603,722.66665 c 3.907563,-14.75935 11.228416,-27.63845 21.60421,-38.00689 10.33392,-10.3266 20.17102,-16.1353 35.346855,-20.87194 13.295107,-4.14962 42.051272,-4.47464 57.000002,-0.64421 10.55227,2.70388 10.57435,2.73747 8.14497,12.38537 -1.29877,5.1579 -1.93358,5.94632 -4.33333,5.3819 -23.6022,-5.5513 -35.623786,-6.25182 -49.825332,-2.90347 -32.158405,7.58211 -50.030813,32.91291 -49.854353,70.65924 0.156205,33.41398 14.485611,55.93533 41.802769,65.70086 8.537623,3.0521 11.695484,3.46571 25.731942,3.37034 11.777704,-0.08 18.386284,-0.80734 25.042594,-2.75606 8.79546,-2.575 9.0789,-2.57949 10.37125,-0.1647 0.73077,1.36545 1.46161,4.7402 1.62408,7.49942 0.28921,4.91142 0.15512,5.06339 -6.3835,7.23452 -15.0161,4.98606 -39.261946,6.3535 -55.321092,3.12004 z m 136.000002,-0.42346 c -26.11912,-6.82711 -41.33333,-28.12526 -41.33333,-57.86188 0,-22.4846 6.61164,-39.77651 19.91969,-52.09741 10.74689,-9.94974 19.54438,-13.29914 35.41364,-13.48279 15.23567,-0.17632 23.52935,2.56576 32.70074,10.81163 6.49196,5.83682 12.32052,15.1357 14.85765,23.70387 2.15147,7.26575 3.6756,22.85468 2.62052,26.8028 l -1.03587,3.87615 -42.57152,0.66667 -42.57152,0.66666 0.0704,6.11908 c 0.14467,12.58026 9.38863,27.51196 20.53638,33.17231 11.32312,5.7494 31.30798,6.5722 46.63445,1.92001 8.33065,-2.52868 9.01017,-2.40726 10.01092,1.7886 0.48099,2.01667 1.17656,4.68547 1.54572,5.93068 0.97105,3.27542 -5.11597,5.97946 -18.85267,8.37494 -14.85802,2.59102 -27.01494,2.46565 -37.94516,-0.39132 z m 43.22428,-71.72362 c 2.99762,-1.15029 2.70942,-9.48605 -0.63724,-18.43077 -8.49894,-22.71548 -36.86096,-27.46706 -53.56795,-8.97442 -5.82689,6.44966 -6.82473,8.26229 -9.46668,17.1965 -3.28484,11.10829 -3.54513,11.01801 31.76711,11.01801 16.38764,0 30.74479,-0.36418 31.90476,-0.80932 z m 291.5028,72.7741 c -20.2603,-4.27146 -36.49404,-20.33247 -42.19566,-41.74664 -2.21908,-8.33447 -2.41414,-27.47483 -0.37862,-37.15251 3.59698,-17.1016 15.88658,-33.13729 30.78001,-40.16228 22.74952,-10.7306 51.5372,-6.56033 67.93943,9.8419 14.43778,14.43778 20.70039,40.13779 15.64165,64.18913 -4.25917,20.24992 -17.86123,35.94582 -36.86977,42.5454 -8.82132,3.06266 -26.28268,4.30537 -34.91704,2.485 z m 28.65706,-16.45223 c 22.46982,-10.46333 31.39448,-45.02164 18.69912,-72.40708 -11.71561,-25.27197 -44.55653,-29.40742 -61.10525,-7.69461 -9.6196,12.62144 -13.18636,35.47654 -8.22128,52.68048 7.03268,24.36817 30.21712,36.9255 50.62741,27.42121 z m 328.93036,16.40768 c -15.43835,-3.04377 -30.6925,-14.28667 -37.50692,-27.64405 -6.79611,-13.32148 -8.77946,-35.07675 -4.75452,-52.15208 4.39516,-18.64592 18.04696,-35.54371 33.56752,-41.54885 10.12489,-3.91748 28.48088,-4.28866 38.67309,-0.782 18.72839,6.44354 31.66116,28.47774 30.76468,52.41529 l -0.39166,10.45813 -42.66667,0.66667 -42.66667,0.66666 0.25037,7.54727 c 0.47146,14.21192 10.44679,27.87392 24.40149,33.41977 6.04526,2.40251 9.83045,2.89375 21.34814,2.77058 8.6833,-0.0929 16.53178,-0.95211 20.66667,-2.26258 8.91664,-2.82592 9.57017,-2.73176 10.58544,1.52496 0.48099,2.01667 1.19031,4.72879 1.57627,6.02692 1.96538,6.61038 -34.70648,12.66703 -53.84723,8.89331 z m 40.75219,-73.52023 c 2.1712,-2.1712 2.01048,-7.20044 -0.5003,-15.65512 -3.0881,-10.39877 -12.29089,-19.22854 -22.3984,-21.4905 -18.43416,-4.12539 -35.76681,7.489 -41.71595,27.9533 -3.15592,10.856 -3.34988,10.79232 32.86949,10.79232 21.66845,0 30.59508,-0.44992 31.74516,-1.6 z m 189.26124,73.5705 c -18.4857,-4.66963 -32.1935,-19.38356 -37.8522,-40.6303 -2.3931,-8.98522 -2.2941,-31.58424 0.1799,-41.08246 5.6809,-21.81059 19.6979,-36.66255 39.3538,-41.69817 15.7252,-4.02859 31.4365,-0.53822 42.4774,9.43658 9.4382,8.5268 9.5132,8.28004 9.5132,-31.28764 v -34.7085 h 9.3333 9.3334 l 0.2727,83.33333 c 0.15,45.83333 0.3,85.88333 0.3333,89 l 0.061,5.66666 -8.3334,0.39696 -8.3333,0.39695 v -5.23028 c 1e-4,-7.21709 -1.403,-13.56363 -2.9985,-13.56363 -0.7326,0 -3.6891,2.67795 -6.5702,5.951 -7.52,8.54318 -19.0973,13.88955 -31.7646,14.66876 -5.5,0.33834 -12.2524,0.0461 -15.0054,-0.64926 z M 1166,815.6861 c 5.4701,-2.86833 13.3773,-11.01411 15.9458,-16.42689 5.7845,-12.18994 6.2388,-42.42704 0.8215,-54.67796 -6.9389,-15.69179 -22.1609,-23.89035 -38.1814,-20.56449 -14.2027,2.94846 -24.6107,13.54614 -29.289,29.82263 -3.4029,11.83936 -2.3274,32.39518 2.2059,42.16059 4.6925,10.1082 9.869,15.81415 17.7761,19.59407 5.6993,2.7245 8.2415,3.1352 16.7211,2.70126 5.5334,-0.28316 11.7867,-1.44861 14,-2.60921 z m 127.3334,17.164 c -22.1022,-4.80137 -37.1968,-20.29667 -42.041,-43.15704 -2.4352,-11.49224 -2.4234,-21.28248 0.04,-32.90967 5.7126,-26.96507 21.7636,-43.63009 45.8547,-47.60865 23.3668,-3.85893 42.8744,5.8378 52.2193,25.95691 5.8197,12.52941 8.6445,34.83988 4.8139,38.0191 -1.1982,0.99432 -15.4739,1.59258 -43.6667,1.82992 l -41.8866,0.35264 0.2636,5.77943 c 0.7249,15.8916 11.4403,30.71488 25.7791,35.66183 9.3162,3.21414 29.0513,3.21014 41.1401,-0.008 4.6839,-1.24703 8.9721,-1.77958 9.5295,-1.18344 0.5573,0.59612 1.4226,3.60328 1.9229,6.68256 l 0.9096,5.59868 -7.246,2.10645 c -16.5804,4.82005 -33.8842,5.86616 -47.6321,2.87963 z m 41.861,-73.56837 c 3.2056,-3.2055 0.2754,-16.35659 -5.5774,-25.03272 -5.5053,-8.16104 -13.6464,-12.14143 -24.881,-12.16495 -11.3134,-0.0237 -18.0576,3.02962 -25.2487,11.4308 -7.5675,8.84096 -12.7297,25.22357 -8.4873,26.93541 0.9167,0.36988 15.2738,0.71988 31.9048,0.77778 25.5355,0.0889 30.5571,-0.21379 32.2896,-1.94632 z M 319.61017,831.1657 c -0.51892,-0.51892 -0.9435,-27.84349 -0.9435,-60.72128 v -59.77777 h 7.82466 7.82466 l 0.64631,10.07097 c 0.78644,12.25435 2.59603,14.85206 5.97987,8.58426 6.76452,-12.52972 17.64716,-20.21823 29.00644,-20.49283 l 6.71807,-0.1624 0.39425,9 0.39425,9 h -4.90622 c -12.62263,0 -24.48494,8.01219 -30.02982,20.28309 -3.063,6.77849 -3.21149,8.54063 -3.85247,45.71691 l -0.66666,38.66666 -8.72318,0.38795 c -4.79773,0.21336 -9.14773,-0.0367 -9.66666,-0.55556 z m 97.19765,-0.27068 c -0.41524,-0.67185 -0.79345,-27.84809 -0.84048,-60.39164 l -0.0855,-59.17006 7.91033,-0.3931 7.91032,-0.39309 0.50583,10.01684 c 0.61758,12.22981 2.62689,15.13024 6.06717,8.75791 6.76452,-12.52972 17.64716,-20.21823 29.00644,-20.49283 l 6.71804,-0.1624 0.39425,9 0.39426,9 -5.06092,0.008 c -12.94374,0.0191 -24.169,7.65887 -29.9099,20.35649 -3.01942,6.67777 -3.17886,8.58369 -3.81769,45.63551 l -0.66667,38.66666 -8.88528,0.39164 c -4.88689,0.2154 -9.22501,-0.15806 -9.64024,-0.82993 z M 758.017,830.33331 c -5.46001,-16.07804 -54.01698,-165.83967 -54.01698,-166.60165 0,-1.53588 19.68757,-1.31589 20.6434,0.23068 1.41954,2.29688 32.5584,101.39453 38.13765,121.37097 2.96982,10.63334 5.64016,20.08334 5.93412,21 0.29396,0.91667 1.3714,1.66667 2.39432,1.66667 1.21243,0 3.13924,-4.52532 5.53522,-13 3.81149,-13.48145 42.38966,-128.3589 43.95736,-130.89548 0.93434,-1.5118 20.73126,-2.07869 20.73126,-0.59366 0,0.74918 -51.01666,143.80711 -57.58952,161.48914 l -2.60208,7 h -11.27937 c -7.83276,0 -11.45233,-0.50928 -11.84538,-1.66667 z m 250.8035,0.58212 c -0.4084,-0.66064 -0.7985,-27.83688 -0.867,-60.39164 l -0.1247,-59.19047 8.0856,-0.39696 8.0856,-0.39695 v 9.14211 c 0,5.76314 0.6949,10.09254 1.8803,11.71358 1.7976,2.45835 1.9882,2.3719 4.3333,-1.96544 6.8383,-12.64733 17.6719,-20.32512 29.0683,-20.60061 l 6.7181,-0.1624 0.3943,9 0.3942,9 -5.0609,0.008 c -12.9437,0.0191 -24.169,7.65887 -29.9099,20.35649 -3.0194,6.67777 -3.1788,8.58369 -3.8177,45.63551 l -0.6666,38.66666 -8.8853,0.39164 c -4.8869,0.2154 -9.2194,-0.14888 -9.6276,-0.80952 z"
       id="path14"
       inkscape:connector-curvature="0" />
  </g>
</svg>
