<?xml version="1.0" encoding="UTF-8" standalone="no"?>
<!-- Created with Inkscape (http://www.inkscape.org/) -->

<svg
   xmlns:dc="http://purl.org/dc/elements/1.1/"
   xmlns:cc="http://creativecommons.org/ns#"
   xmlns:rdf="http://www.w3.org/1999/02/22-rdf-syntax-ns#"
   xmlns:svg="http://www.w3.org/2000/svg"
   xmlns="http://www.w3.org/2000/svg"
   xmlns:sodipodi="http://sodipodi.sourceforge.net/DTD/sodipodi-0.dtd"
   xmlns:inkscape="http://www.inkscape.org/namespaces/inkscape"
   width="39.999744mm"
   height="14.999748mm"
   viewBox="0 0 39.999745 14.999747"
   version="1.1"
   id="svg44"
   inkscape:version="0.92.3 (2405546, 2018-03-11)"
   sodipodi:docname="logo_texto.svg">
  <defs
     id="defs38" />
  <sodipodi:namedview
     id="base"
     pagecolor="#ffffff"
     bordercolor="#666666"
     borderopacity="1.0"
     inkscape:pageopacity="0.0"
     inkscape:pageshadow="2"
     inkscape:zoom="0.98994949"
     inkscape:cx="260.9193"
     inkscape:cy="199.19592"
     inkscape:document-units="mm"
     inkscape:current-layer="layer1"
     showgrid="false"
     inkscape:window-width="1920"
     inkscape:window-height="1001"
     inkscape:window-x="-9"
     inkscape:window-y="-9"
     inkscape:window-maximized="1" />
  <metadata
     id="metadata41">
    <rdf:RDF>
      <cc:Work
         rdf:about="">
        <dc:format>image/svg+xml</dc:format>
        <dc:type
           rdf:resource="http://purl.org/dc/dcmitype/StillImage" />
        <dc:title />
      </cc:Work>
    </rdf:RDF>
  </metadata>
  <g
     inkscape:label="Capa 1"
     inkscape:groupmode="layer"
     id="layer1"
     transform="translate(495.74013,111.97509)">
    <path
       inkscape:connector-curvature="0"
       d="m -460.23812,-106.94342 c 0.15369,-0.13811 0.31493,-0.26917 0.48354,-0.39194 0.0859,-0.0626 0.17681,-0.11862 0.27213,-0.16747 -0.005,-0.041 -0.01,-0.0822 -0.0122,-0.1235 l -0.002,-0.0229 -1e-4,-0.0227 c -0.002,-0.17804 0.029,-0.3542 0.0792,-0.5261 0.0295,-0.10124 0.0664,-0.20056 0.10904,-0.29776 l -0.002,-0.14374 0.23145,-0.26087 c 0.0362,-0.0407 0.071,-0.0821 0.10527,-0.12389 0.0716,-0.0878 0.14925,-0.17157 0.23436,-0.24926 l 0.0135,-0.0122 c 0.16848,-0.14805 0.35244,-0.2811 0.55699,-0.38566 0.22869,-0.11677 0.47785,-0.19401 0.73983,-0.21463 0.4446,-0.035 0.87078,0.0908 1.19697,0.37013 0.30692,0.26282 0.46492,0.62029 0.48956,0.99998 l 0.002,0.0241 1.1e-4,0.024 c 0.002,0.17908 -0.0296,0.35664 -0.0823,0.52896 -0.056,0.18288 -0.14007,0.35697 -0.24018,0.52313 -0.0835,0.14324 -0.17725,0.28124 -0.28541,0.41008 -0.10262,0.1223 -0.21772,0.23561 -0.34712,0.33484 -0.0728,0.0621 -0.15018,0.11981 -0.23194,0.17224 0.002,0.0233 0.003,0.0467 0.003,0.07 0.002,0.12548 -0.0146,0.24904 -0.0433,0.37008 l 0.46984,-0.51761 0.54375,3.02139 -0.23223,0.30829 c -0.10624,0.14106 -0.21671,0.27937 -0.3299,0.41578 -0.13466,0.16244 -0.27593,0.31999 -0.42202,0.47354 -0.16805,0.17747 -0.34321,0.34908 -0.524,0.51588 -0.18249,0.16829 -0.3713,0.32989 -0.56799,0.48177 -0.24315,0.19127 -0.50424,0.36243 -0.78767,0.50088 -0.30079,0.147 -0.62552,0.24909 -0.96708,0.27596 -0.009,3.8e-4 -0.0187,0.002 -0.028,0.002 -0.009,3.7e-4 -0.0186,0.002 -0.028,0.002 -0.009,3.8e-4 -0.0187,0.002 -0.0279,0.002 -0.009,3.8e-4 -0.0173,0.002 -0.0259,0.002 l -0.0577,0.005 -0.0578,-0.001 c -0.64413,-0.012 -1.19748,-0.25669 -1.56536,-0.7057 -0.27611,0.22831 -0.56749,0.44119 -0.87847,0.62918 -0.41416,0.25041 -0.88196,0.45938 -1.38374,0.49887 -0.47765,0.0376 -0.93272,-0.10466 -1.26718,-0.42058 -0.11372,-0.10738 -0.20212,-0.22693 -0.26929,-0.35497 l -0.23216,0.21064 c -0.15014,0.15387 -0.33555,0.27303 -0.54826,0.34486 -0.14152,0.0478 -0.28965,0.0786 -0.4401,0.0905 -0.12113,0.01 -0.2432,0.009 -0.36411,-0.003 -0.17451,-0.0162 -0.34328,-0.0601 -0.49984,-0.12737 -0.42085,-0.17596 -0.74883,-0.46893 -1.00912,-0.81084 -0.0543,0.008 -0.10891,0.0138 -0.16371,0.0182 -0.24229,0.0191 -0.48413,-3.7e-4 -0.71938,-0.0519 -0.29478,0.34616 -0.61671,0.67435 -0.97843,0.96319 -0.45925,0.366645 -1.01363,0.709862 -1.63387,0.779762 l -0.0203,0.0017 -0.0207,0.0017 c -0.62346,0.04813 -1.18082,-0.194203 -1.53284,-0.664352 -0.12834,0.0927 -0.26229,0.178922 -0.40236,0.256352 -0.23739,0.131276 -0.49616,0.22554 -0.76997,0.268123 -0.0903,0.02657 -0.16301,0.03347 -0.26562,0.04153 -0.0302,0.0017 -0.0605,0.0047 -0.0909,0.0071 -0.71879,0.05655 -1.34295,-0.18942 -1.76549,-0.682405 -0.35227,0.313306 -0.72878,0.604872 -1.13933,0.853083 -0.41414,0.250406 -0.8819,0.459382 -1.38368,0.498866 -0.47765,0.03759 -0.93279,-0.104709 -1.26726,-0.420643 -0.11365,-0.107413 -0.20206,-0.226924 -0.2692,-0.354908 l -0.23221,0.210647 c -0.15018,0.153874 -0.33557,0.273025 -0.54825,0.344863 -0.14155,0.04777 -0.28965,0.0786 -0.44005,0.09044 -0.12114,0.0095 -0.24322,0.0087 -0.36413,-0.0026 -0.1748,-0.01628 -0.3437,-0.06013 -0.50037,-0.12759 -0.0198,-0.0083 -0.0395,-0.01684 -0.0589,-0.02567 -0.0398,0.03163 -0.0812,0.06154 -0.1237,0.08973 -0.53815,0.357325 -0.93398,0.553786 -1.62458,0.517701 -0.32553,-0.01697 -0.65334,-0.0075 -0.97935,-0.01384 -0.27809,-0.0055 -0.55646,-0.01303 -0.83327,-0.03917 -0.60857,-0.05752 -1.1918,-0.281515 -1.28137,-0.905005 -0.0338,-0.234703 0.0139,-0.446184 0.15742,-0.641014 l 0.65064,-1.09013 c -0.22455,-0.0131 -0.44903,-0.0271 -0.67359,-0.0419 -0.0417,0.13422 -0.0843,0.26828 -0.13042,0.40141 -0.22847,0.65967 -0.4903,1.311711 -0.80876,1.940035 -0.2901,0.57237 -0.63281,1.140516 -1.06996,1.63136 l -0.3464,0.389027 -0.5555,-0.03281 c -0.55548,-0.03282 -1.11339,-0.03182 -1.66984,-0.03735 -0.55658,-0.0054 -1.11332,-0.0074 -1.66925,-0.03497 -0.18583,-0.0092 -0.37021,-0.01807 -0.55463,-0.04282 -0.581,-0.07794 -1.10408,-0.32395 -1.18471,-0.908699 -0.0411,-0.298577 0.0792,-0.596322 0.31089,-0.809044 l 0.0862,-0.07915 0.10433,-0.05936 c 0.0763,-0.04345 0.14876,-0.09975 0.21884,-0.151162 0.3614,-0.264848 0.69594,-0.476472 1.1646,-0.550924 l 0.0501,-0.008 0.0507,-0.0039 c 0.56483,-0.04076 1.68129,-0.174184 2.052,-0.610033 l 0.0102,-0.0118 0.006,-0.007 c 0.72152,-0.80255 1.17632,-2.07418 1.46914,-3.06737 0.11355,-0.38524 0.21439,-0.77334 0.30647,-1.16316 -0.0593,0.0609 -0.11661,0.11443 -0.1951,0.16827 -0.2607,0.24786 -0.58317,0.40256 -0.97297,0.37359 -0.51301,-0.038 -0.87984,-0.365 -1.00451,-0.80862 -0.0119,-0.0421 -0.034,-0.0829 -0.0524,-0.12299 -0.0643,-0.14058 -0.088,-0.26645 -0.0815,-0.4192 0.004,-0.0783 0.0162,-0.1547 0.0381,-0.22868 -0.2325,-0.32196 -0.21559,-0.73555 0.0211,-1.07786 0.003,-0.008 0.005,-0.0149 0.008,-0.0223 -0.10572,0.026 -0.21678,0.0437 -0.33469,0.0526 -0.0134,0.004 -0.0277,0.009 -0.0405,0.0132 -0.29706,0.0979 -0.54155,0.14629 -0.85411,0.0603 -0.0307,-0.008 -0.0611,-0.0149 -0.0914,-0.0235 -0.77468,-0.21886 -1.01438,-0.95309 -0.63789,-1.47653 -0.0339,-0.004 -0.0687,-0.009 -0.10486,-0.0157 -0.0903,-0.0156 -0.14315,-0.0295 -0.22888,-0.0573 -0.97238,-0.31633 -0.98668,-1.33022 -0.29866,-1.7273 -0.0605,-0.11456 -0.0953,-0.24419 -0.0988,-0.3872 -0.0123,-0.50385 0.38713,-0.87186 0.90791,-0.97581 0.11454,-0.0228 0.22857,-0.0474 0.34312,-0.0704 0.21598,-0.105 0.45938,-0.1415 0.70409,-0.1394 0.0915,0.001 0.18075,0.006 0.27039,0.0156 0.11995,-0.0337 0.23518,-0.0542 0.36725,-0.0646 0.0159,-10e-4 0.0318,-0.003 0.0477,-0.004 0.16412,-0.2062 0.41639,-0.34506 0.69728,-0.39987 0.11664,-0.0227 0.23481,-0.0329 0.35363,-0.0399 0.39794,-0.0234 0.78797,-0.0906 1.18361,0.006 0.0891,0.0217 0.29312,0.0628 0.37868,0.0608 0.40309,-0.0317 0.65908,-0.0738 1.06484,0.0413 0.20589,0.0585 0.42106,0.0912 0.62869,0.14742 0.29607,0.0802 0.58151,0.17263 0.79536,0.37991 0.009,0.005 0.017,0.0105 0.0253,0.0159 0.0344,-0.016 0.0697,-0.0306 0.10579,-0.0435 0.10472,-0.0378 0.20865,-0.0611 0.31841,-0.0725 0.19288,-0.0586 0.36024,-0.0672 0.56925,-0.0615 0.0469,0.001 0.0939,0.004 0.14079,0.006 0.18819,-0.0282 0.36444,-0.0142 0.54879,0.0336 0.0115,0.002 0.023,0.004 0.0341,0.005 0.19239,-0.005 0.3579,0.004 0.53491,0.0667 0.12928,0.0152 0.25103,0.0459 0.36769,0.0979 0.10212,0.0137 0.1951,0.0384 0.29239,0.0789 0.045,0.0132 0.09,0.0302 0.13262,0.0461 0.0104,0.003 0.0212,0.006 0.0315,0.009 0.34556,0.10423 0.63413,0.29765 0.7637,0.59096 0.0941,0.03 0.18762,0.0614 0.28171,0.0922 0.18684,0.0612 0.37246,0.12676 0.5616,0.18182 0.31175,0.0908 0.63237,0.14362 0.93688,0.25849 0.20219,0.0763 0.37557,0.18668 0.51007,0.34136 0.32924,0.2511 0.5401,0.62297 0.38765,1.01719 -0.10333,0.26739 -0.32969,0.44204 -0.59871,0.53124 0.34599,0.31452 0.60369,0.73323 0.55364,1.19119 -0.0421,0.38586 -0.32548,0.7555 -0.76921,0.8107 -0.35981,0.0448 -0.66428,-0.14123 -0.84652,-0.41243 -0.0213,-0.0304 -0.14924,-0.10089 -0.18389,-0.1208 -0.10458,-0.06 -0.20118,-0.11897 -0.29036,-0.18783 0.006,0.0549 0.008,0.11135 0.004,0.16878 -0.0494,0.67279 -0.58348,0.86892 -1.23517,0.87262 -0.0372,1e-4 -0.0757,-3.8e-4 -0.11541,-0.002 0.0423,0.013 0.0847,0.0281 0.12703,0.0454 0.62214,0.25445 0.91668,0.5408 0.8435,1.18839 -0.004,0.0384 -0.009,0.0774 -0.0138,0.11676 0.54431,-0.47419 1.14336,-0.89569 1.79009,-1.24702 l 0.016,-0.009 c 0.27147,-0.14201 0.54844,-0.27549 0.83146,-0.39737 0.25328,-0.10911 0.51257,-0.20686 0.77849,-0.28747 0.18265,-0.0708 0.37088,-0.12884 0.56515,-0.16638 0.15959,-0.0309 0.32089,-0.0542 0.4835,-0.067 0.4583,-0.0361 0.92102,0.0192 1.31739,0.24383 0.30985,0.1756 0.56721,0.41256 0.71638,0.71869 0.0532,0.10419 0.0695,0.15646 0.0922,0.26744 0.0169,0.0815 0.023,0.12687 0.0241,0.20681 0.004,0.0711 0.003,0.14161 -0.006,0.21116 0.0434,-0.055 0.0872,-0.10973 0.13113,-0.16425 0.0859,-0.10759 0.17478,-0.21252 0.26684,-0.31572 0.0784,-0.0879 0.1569,-0.17588 0.23538,-0.26394 l 0.0103,-0.0115 0.005,-0.006 c 0.1869,-0.19968 0.37909,-0.3955 0.57785,-0.58549 0.20263,-0.19351 0.41896,-0.3738 0.66915,-0.51544 l 0.0759,-0.043 0.083,-0.031 c 0.0857,-0.032 0.17272,-0.0613 0.26071,-0.0878 0.14015,-0.0421 0.28547,-0.0697 0.4325,-0.0813 0.007,-3.7e-4 0.0139,-10e-4 0.021,-0.002 0.008,-3.8e-4 0.0157,-0.001 0.0242,-0.002 l 0.0247,-0.002 0.0242,-10e-4 c 0.43507,-0.015 0.852,0.0883 1.21757,0.30348 0.17893,0.10535 0.33409,0.23499 0.45551,0.38519 0.30805,-0.2696 0.6733,-0.4793 1.10844,-0.53219 l 0.0267,-0.003 0.0268,-0.002 c 0.10659,-0.008 0.16143,-0.009 0.26976,-0.002 0.14309,0.01 0.28234,0.042 0.41436,0.0927 0.21819,0.0751 0.41358,0.19239 0.56522,0.35492 0.0121,0.0129 0.0239,0.0261 0.0353,0.0395 0.038,-0.0285 0.0765,-0.0563 0.11577,-0.0833 0.26648,-0.18317 0.56867,-0.31178 0.90447,-0.33821 0.021,-0.002 0.042,-0.003 0.0629,-0.005 0.1672,-0.0131 0.33562,0.006 0.4927,0.06 0.36111,0.10064 0.66126,0.31239 0.8455,0.61492 0.0198,0.0327 0.0382,0.0657 0.0552,0.0993 0.39651,-0.30129 0.81814,-0.57544 1.26233,-0.81683 l 0.0135,-0.007 c 0.27145,-0.142 0.54843,-0.27549 0.83143,-0.39737 0.25332,-0.10912 0.51262,-0.20686 0.77854,-0.28747 0.18263,-0.0708 0.37091,-0.12884 0.56516,-0.16638 0.1596,-0.0309 0.32093,-0.0542 0.48351,-0.0669 0.45832,-0.0361 0.92097,0.0191 1.31732,0.24383 0.30996,0.17559 0.5674,0.41269 0.71662,0.71895 0.0528,0.10394 0.0692,0.15636 0.092,0.26723 0.0167,0.0815 0.023,0.12702 0.024,0.20689 0.003,0.0498 0.003,0.0992 -1e-4,0.14835 0.15617,-0.19675 0.33042,-0.38168 0.52006,-0.55251 l 0.0286,-0.0257 0.0303,-0.0234 c 0.005,-0.004 0.01,-0.008 0.0146,-0.0119 0.0376,-0.0343 0.0684,-0.0614 0.10715,-0.0917"
       style="fill:#000000;fill-opacity:1;fill-rule:evenodd;stroke:none;stroke-width:0.19463105"
       id="path14" />
    <path
       inkscape:connector-curvature="0"
       d="m -483.59217,-103.42946 c 0.17041,-0.21625 0.36437,-0.41967 0.57512,-0.6106 0.55778,-0.5053 1.18095,-0.95518 1.86291,-1.32567 l 0.005,-0.003 0.005,-0.003 c 0.26186,-0.13696 0.52923,-0.26595 0.80286,-0.38376 0.24328,-0.10477 0.49278,-0.1988 0.74913,-0.27574 0.16296,-0.064 0.33143,-0.11711 0.50577,-0.15082 0.14326,-0.0277 0.2882,-0.0488 0.43423,-0.0603 0.37124,-0.0293 0.75071,0.009 1.06897,0.18964 0.24395,0.13822 0.44712,0.32106 0.56168,0.55799 0.0515,0.10052 0.0447,0.0941 0.0628,0.18293 0.0199,0.0967 0.0166,0.0658 0.0173,0.15205 0.0127,0.17421 -0.0308,0.34221 -0.12379,0.49352 0.0924,0.14516 0.1451,0.30563 0.14662,0.47611 0.003,0.3176 -0.16319,0.61081 -0.37196,0.86281 -0.19191,0.23153 -0.36725,0.47335 -0.53685,0.71765 -0.0123,0.0199 -0.0249,0.0396 -0.0377,0.0592 0.0453,-0.0371 0.0904,-0.0743 0.13552,-0.11134 0.0612,-0.0504 0.12259,-0.10067 0.18411,-0.15119 0.11483,-0.10309 0.22846,-0.20724 0.3402,-0.31299 0.0233,-0.022 0.0464,-0.0441 0.0693,-0.0663 0.0437,-0.18055 0.10472,-0.358 0.19238,-0.52647 l 0.006,-0.0121 0.007,-0.0119 c 0.1106,-0.18882 0.23671,-0.36986 0.36785,-0.54819 0.15377,-0.20892 0.31323,-0.41464 0.47707,-0.61763 0.0816,-0.10217 0.16639,-0.20232 0.25397,-0.3005 0.0784,-0.0879 0.15689,-0.17587 0.23528,-0.26382 l 0.005,-0.005 0.005,-0.005 c 0.18183,-0.19432 0.36882,-0.38493 0.56265,-0.57018 0.1772,-0.16926 0.36894,-0.33165 0.58986,-0.45672 l 0.0472,-0.0267 0.0516,-0.0193 c 0.077,-0.0288 0.15506,-0.0551 0.23414,-0.0788 0.11024,-0.0332 0.22465,-0.055 0.34054,-0.0641 0.007,-3.7e-4 0.014,-0.001 0.021,-0.002 0.008,-3.7e-4 0.0153,-10e-4 0.0229,-0.002 l 0.0151,-0.001 0.0153,-3.7e-4 c 0.35513,-0.0122 0.68948,0.072 0.98295,0.24478 0.30611,0.18018 0.51508,0.44383 0.55044,0.76521 0.0215,-0.0251 0.0429,-0.0502 0.0644,-0.0753 0.29944,-0.35027 0.70527,-0.71837 1.22283,-0.78132 l 0.0164,-0.002 0.0166,-0.001 c 0.12558,-0.01 0.0657,-0.011 0.20556,-0.001 0.10252,0.007 0.20114,0.0308 0.29455,0.0675 0.15807,0.0533 0.29922,0.13549 0.40735,0.25138 0.11764,0.12603 0.1835,0.27884 0.19468,0.44038 0,-3.8e-4 0.002,-0.001 0.002,-0.002 l 0.002,-0.002 c 0.15497,-0.15335 0.32062,-0.2987 0.50474,-0.42533 0.20296,-0.13951 0.43539,-0.2447 0.69565,-0.26518 0.021,-0.002 0.042,-0.003 0.0629,-0.005 0.11245,-0.009 0.22424,0.005 0.32689,0.0417 0.26859,0.0719 0.48824,0.22375 0.6228,0.44466 0.1148,0.18858 0.16383,0.39816 0.16673,0.61128 0.51804,-0.4503 1.0897,-0.85297 1.70999,-1.18999 l 0.005,-0.003 0.005,-0.003 c 0.26185,-0.13702 0.52923,-0.266 0.8029,-0.38381 0.24326,-0.10478 0.49275,-0.19881 0.74912,-0.27575 0.16295,-0.064 0.33148,-0.11711 0.50584,-0.15083 0.14325,-0.0278 0.28812,-0.0488 0.43421,-0.0603 0.37125,-0.0293 0.75071,0.009 1.0689,0.18964 0.24402,0.13822 0.44719,0.32112 0.56175,0.55809 0.0513,0.10054 0.0446,0.0938 0.0629,0.18283 0.02,0.0972 0.0167,0.0666 0.0173,0.15205 0.0127,0.1742 -0.0307,0.34221 -0.12373,0.49351 0.0923,0.14517 0.14503,0.30564 0.14656,0.47612 0.003,0.3176 -0.1632,0.61082 -0.37199,0.86281 -0.19182,0.23153 -0.36724,0.47335 -0.53685,0.71762 -0.0123,0.0198 -0.0249,0.0396 -0.0376,0.0592 0.0452,-0.0371 0.0903,-0.0742 0.13542,-0.11127 0.0614,-0.0505 0.1229,-0.10097 0.18435,-0.15141 0.11479,-0.103 0.2283,-0.20714 0.33994,-0.31277 0.0284,-0.027 0.0569,-0.0541 0.0849,-0.0814 0.0473,-0.12083 0.0977,-0.24067 0.15055,-0.35966 0.0844,-0.18986 0.1814,-0.37524 0.28803,-0.55634 l 0.002,-0.003 0.002,-0.003 c 0.12302,-0.2029 0.25785,-0.40029 0.40196,-0.59233 0.15914,-0.21204 0.34133,-0.41077 0.54335,-0.59278 l 0.0175,-0.0158 0.0189,-0.0146 c 0.0133,-0.0103 0.0263,-0.021 0.0386,-0.0321 0.0778,-0.0709 0.0328,-0.0332 0.0948,-0.0805 0.14648,-0.13232 0.30076,-0.25813 0.46252,-0.37589 0.14682,-0.10693 0.30921,-0.18875 0.48437,-0.24161 -0.042,-0.11436 -0.0653,-0.23481 -0.073,-0.35786 l -8.9e-4,-0.0137 -7e-5,-0.0138 c -8.9e-4,-0.14488 0.0246,-0.28867 0.0656,-0.42899 0.032,-0.10941 0.074,-0.21633 0.12338,-0.32071 l -8.8e-4,-0.0866 0.14024,-0.15806 c 0.0395,-0.0446 0.0779,-0.0899 0.11534,-0.13579 0.0597,-0.0733 0.12435,-0.14333 0.19557,-0.20836 l 0.004,-0.004 0.004,-0.004 c 0.14266,-0.12536 0.29877,-0.23978 0.4737,-0.32919 0.17767,-0.0907 0.3716,-0.15279 0.57682,-0.16894 0.33413,-0.0263 0.64574,0.0664 0.88519,0.2715 0.23452,0.20083 0.34427,0.46862 0.3627,0.75255 l 8.8e-4,0.0146 1.1e-4,0.0146 c 8.9e-4,0.14444 -0.0247,0.28805 -0.0675,0.4276 -0.0477,0.15579 -0.12044,0.30451 -0.20649,0.44704 -0.0731,0.12577 -0.1552,0.24743 -0.25075,0.36125 -0.0866,0.10319 -0.18376,0.19922 -0.29422,0.28278 -0.1156,0.0996 -0.245,0.18628 -0.38867,0.25252 -0.005,0.003 -0.0114,0.005 -0.017,0.008 0.0267,0.0844 0.0394,0.17225 0.0402,0.26127 0.003,0.24142 -0.0776,0.47794 -0.18899,0.69737 -0.11038,0.21751 -0.24139,0.42659 -0.38531,0.6285 l -0.003,0.004 -0.003,0.004 c -0.0885,0.1201 -0.18136,0.23769 -0.27881,0.35231 -0.0914,0.10764 -0.18439,0.21429 -0.27868,0.32008 -0.19002,0.21311 -0.38957,0.41992 -0.60422,0.61437 -0.0739,0.067 -0.14643,0.13376 -0.22236,0.19736 l 0.008,-3.7e-4 0.0125,-3.8e-4 c 0.18809,-0.008 0.47711,-0.16442 0.62929,-0.25538 0.36651,-0.21904 0.69066,-0.53055 0.96583,-0.83376 l 0.92404,-1.01811 0.3735,2.07521 -0.14025,0.18618 c -0.10263,0.13627 -0.20952,0.27008 -0.31907,0.40209 -0.12925,0.15586 -0.26502,0.30723 -0.40539,0.45483 -0.16199,0.17103 -0.33101,0.33658 -0.5057,0.49778 -0.17379,0.16031 -0.35451,0.31504 -0.54384,0.46128 -0.21972,0.17281 -0.45709,0.32947 -0.71517,0.45556 -0.25096,0.12262 -0.52363,0.21101 -0.81076,0.23361 -0.009,3.7e-4 -0.0187,0.002 -0.028,0.002 -0.009,3.8e-4 -0.0186,0.002 -0.0279,0.002 -0.009,3.8e-4 -0.0187,0.002 -0.0279,0.002 -0.009,3.7e-4 -0.0173,0.002 -0.0259,0.002 l -0.0361,0.003 -0.0362,-3.8e-4 c -0.62996,-0.0118 -1.12554,-0.28785 -1.40219,-0.78221 -0.0274,-0.049 -0.053,-0.0985 -0.077,-0.14846 -0.005,0.006 -0.0115,0.0109 -0.0172,0.0164 l -0.004,0.004 -0.004,0.004 c -0.35851,0.32665 -0.74468,0.63358 -1.17087,0.89121 -0.35195,0.21278 -0.76408,0.4049 -1.19494,0.4388 -0.36093,0.0284 -0.69478,-0.0764 -0.94125,-0.30926 -0.23799,-0.22476 -0.32134,-0.52509 -0.33504,-0.82367 l -0.75235,0.6826 c -0.10635,0.11129 -0.23837,0.19935 -0.3939,0.25185 -0.10747,0.0362 -0.21992,0.0599 -0.33445,0.0689 -0.0959,0.008 -0.19257,0.007 -0.28823,-0.002 -0.12965,-0.0121 -0.25465,-0.0451 -0.37129,-0.0953 -0.38701,-0.16181 -0.67814,-0.44803 -0.9022,-0.76203 -0.0306,-0.0428 -0.0598,-0.0863 -0.0877,-0.13044 -0.12475,0.0339 -0.25398,0.0567 -0.38737,0.0672 -0.24045,0.0189 -0.47921,-0.009 -0.70838,-0.0722 -0.0436,-0.012 -0.0864,-0.0254 -0.12864,-0.0402 -0.32336,0.40068 -0.68168,0.78557 -1.09258,1.11365 -0.38876,0.31039 -0.88392,0.631136 -1.41647,0.691127 l -0.013,0.0017 -0.013,0.0013 c -0.48694,0.03754 -0.89964,-0.151137 -1.16442,-0.504737 -0.0899,-0.12015 -0.15596,-0.25456 -0.2041,-0.39604 -0.0467,0.0436 -0.0941,0.0865 -0.1424,0.12861 l -0.006,0.005 -0.006,0.005 c -0.18155,0.15059 -0.37654,0.28937 -0.58809,0.40629 -0.20251,0.11199 -0.42385,0.19227 -0.65925,0.22448 -0.0613,0.02104 -0.0687,0.02263 -0.20127,0.03309 -0.0303,0.0017 -0.0605,0.0048 -0.0909,0.0072 -0.6893,0.05423 -1.23748,-0.22648 -1.56469,-0.75055 -0.034,-0.0544 -0.066,-0.10962 -0.0962,-0.16551 -0.0829,0.0837 -0.16738,0.16632 -0.25335,0.24768 l -0.004,0.004 -0.004,0.004 c -0.35849,0.32666 -0.74475,0.633583 -1.17091,0.891214 -0.35196,0.212782 -0.76404,0.404902 -1.19489,0.438802 -0.36095,0.02837 -0.69485,-0.07647 -0.94133,-0.309317 -0.23792,-0.224773 -0.32127,-0.525099 -0.33499,-0.823669 l -0.75239,0.682647 c -0.10634,0.1113 -0.23838,0.199346 -0.39395,0.251876 -0.10743,0.03621 -0.21987,0.05986 -0.33432,0.06886 -0.0961,0.0075 -0.19262,0.0068 -0.28819,-0.0017 -0.12986,-0.01208 -0.255,-0.04519 -0.37176,-0.09546 -0.10852,-0.0454 -0.20946,-0.100564 -0.30353,-0.163414 -0.0731,0.09978 -0.17364,0.188859 -0.28706,0.26412 -0.45188,0.300047 -0.76696,0.478736 -1.36325,0.44763 -0.32394,-0.01693 -0.66712,-0.008 -0.99378,-0.01444 -0.26529,-0.0053 -0.53656,-0.01234 -0.80023,-0.03724 -0.4096,-0.0387 -0.8597,-0.152434 -0.92201,-0.586161 -0.0268,-0.18657 0.0269,-0.303677 0.10171,-0.400218 l 0.965,-1.61687 c -0.19064,-0.009 -0.38121,-0.0195 -0.57158,-0.0304 -0.31064,-0.018 -0.62121,-0.0376 -0.93155,-0.0586 -0.0395,-0.003 -0.0837,-0.005 -0.13024,-0.008 -0.0705,0.22599 -0.13801,0.4535 -0.21613,0.67893 -0.22241,0.64217 -0.47916,1.282615 -0.79026,1.896432 -0.27272,0.538024 -0.60222,1.088113 -1.01683,1.553654 l -0.21474,0.241096 -0.34691,-0.02049 c -0.55864,-0.03297 -1.13135,-0.0325 -1.69169,-0.03808 -0.54906,-0.0054 -1.10372,-0.0073 -1.65161,-0.03445 -0.50388,-0.02496 -1.27986,-0.04872 -1.35992,-0.629313 -0.0255,-0.18524 0.05,-0.368702 0.19647,-0.503247 l 0.0532,-0.04882 0.0646,-0.03677 c 0.0899,-0.05114 0.17593,-0.116245 0.25816,-0.176524 0.29977,-0.219724 0.58572,-0.412298 0.98078,-0.475105 l 0.0314,-0.0053 0.0317,-0.0021 c 0.71001,-0.05125 1.87501,-0.205281 2.33949,-0.751293 l 0.005,-0.006 0.005,-0.006 c 0.76303,-0.84865 1.2416,-2.17073 1.54655,-3.20496 0.26735,-0.9068 0.46441,-1.82591 0.64267,-2.74801 -0.12359,0.0757 -0.25604,0.10299 -0.33506,0.2242 -0.0696,0.1959 -0.12214,0.30327 -0.24116,0.44 -0.0405,0.19847 -0.15348,0.35697 -0.36173,0.48649 -0.002,0.001 -0.004,0.002 -0.005,0.003 -0.0908,0.0952 -0.13823,0.1566 -0.24737,0.2255 -0.17503,0.17432 -0.38735,0.30511 -0.67154,0.28402 -0.34996,-0.0259 -0.56676,-0.25288 -0.64544,-0.53265 -0.0467,-0.16596 -0.13076,-0.21697 -0.12142,-0.43636 0.005,-0.11687 0.0418,-0.22061 0.10229,-0.31367 -0.26809,-0.20444 -0.31201,-0.54567 -0.0784,-0.84703 0.0787,-0.24187 0.18536,-0.41108 0.45243,-0.51706 0.0434,-0.0685 0.0953,-0.12052 0.15393,-0.16458 -0.0297,-0.0915 -0.034,-0.18452 -0.0139,-0.27444 -0.0799,-0.007 -0.15881,-0.0212 -0.23486,-0.0456 -0.0545,0.0325 -0.10686,0.0664 -0.15266,0.10452 -0.27676,0.23007 -0.55922,0.37495 -0.94907,0.40092 -0.0394,0.003 -0.0928,0.0207 -0.1295,0.0328 -0.20738,0.0683 -0.37866,0.11613 -0.60471,0.0526 -0.0279,-0.007 -0.0556,-0.0133 -0.0833,-0.0212 -0.63734,-0.18009 -0.7208,-0.86114 -0.12858,-1.16136 0.0796,-0.0402 0.16464,-0.074 0.24637,-0.10951 0.1123,-0.16104 0.29299,-0.26453 0.5247,-0.31252 0,-1.1e-4 0.002,-2.5e-4 0.002,-2.5e-4 0.0977,-0.0777 0.18497,-0.13293 0.31485,-0.18591 -0.002,0 -0.002,-5e-5 -0.002,-1e-5 -0.2213,0.0742 -0.33089,0.14191 -0.60625,0.12468 -0.18224,0.0933 -0.36785,0.10125 -0.58535,0.13698 -0.21121,0.0347 -0.34323,0.0421 -0.55299,0.006 -0.10183,-0.0176 -0.0746,-0.0119 -0.16809,-0.0423 -0.79249,-0.25781 -0.61609,-1.16533 0.2085,-1.17296 0.0336,-2.5e-4 0.066,-0.001 0.0978,-0.005 0.0229,-0.0152 0.0458,-0.0295 0.0686,-0.0428 -0.27372,-0.0789 -0.49658,-0.24677 -0.50411,-0.55511 -0.008,-0.32373 0.25747,-0.5411 0.58995,-0.60746 0.13287,-0.0264 0.26864,-0.0561 0.40357,-0.0823 0.15661,-0.0894 0.34751,-0.1207 0.55341,-0.11894 0.11285,10e-4 0.2066,0.008 0.31181,0.0243 0.12509,-0.0414 0.22249,-0.0634 0.36441,-0.0746 0.092,-0.007 0.17699,-0.0119 0.25763,-0.009 0.0784,-0.20796 0.28568,-0.35169 0.53717,-0.40076 0.096,-0.0187 0.19724,-0.0268 0.29509,-0.0326 0.33138,-0.0195 0.73252,-0.084 1.05291,-0.006 0.11652,0.0284 0.39827,0.0814 0.5181,0.072 0.33899,-0.0267 0.56412,-0.0721 0.90981,0.026 0.20801,0.059 0.42525,0.0923 0.63367,0.14874 0.24798,0.0672 0.49277,0.14076 0.64427,0.30848 0.10303,0.0583 0.18648,0.12241 0.24981,0.21772 0.0787,-0.0778 0.17904,-0.14209 0.2964,-0.18436 0.0882,-0.0318 0.16812,-0.0468 0.25745,-0.0526 0.16395,-0.0564 0.28948,-0.0606 0.46946,-0.0558 0.06,0.002 0.12377,0.006 0.18443,0.007 0.15045,-0.0282 0.28095,-0.0159 0.42555,0.0237 0.0392,0.006 0.0795,0.0124 0.1143,0.0143 0.17027,-0.005 0.29934,-0.003 0.4437,0.0583 0.12372,0.009 0.23699,0.0347 0.34727,0.0954 0.0952,0.007 0.17089,0.021 0.271,0.0661 0.0179,0.004 0.049,0.014 0.13275,0.0451 0.0159,0.005 0.0326,0.01 0.0487,0.0147 0.28543,0.0861 0.52243,0.24575 0.55544,0.52805 0.17339,0.0486 0.3483,0.10894 0.48036,0.15216 0.19025,0.0623 0.38275,0.13 0.57523,0.18604 0.28996,0.0844 0.63036,0.14424 0.90528,0.24795 0.15925,0.0601 0.28156,0.1431 0.37176,0.25893 0.69843,0.4941 0.16521,1.12245 -0.58996,0.97125 -0.48935,-0.14568 0.19593,0.36729 0.31642,0.51937 1.12222,0.93185 0.11355,1.90355 -0.36167,1.19643 -0.13283,-0.19765 -0.46332,-0.26472 -0.68605,-0.51635 -0.17884,-0.20205 -0.63957,-0.37298 -0.96042,-0.38675 0.004,0.11699 0,0.20189 -0.0653,0.29803 0.0262,0.009 0.052,0.0194 0.0772,0.0304 0.26149,0.11523 0.43498,0.33795 0.41551,0.60271 -0.0335,0.45665 -0.39245,0.52607 -0.83405,0.52857 -0.34065,0.002 -0.86986,-0.10432 -1.15248,-0.27446 -0.33787,-0.2035 -0.80346,-0.28743 -1.18617,-0.41117 -0.19389,-0.0628 -0.40361,-0.0613 -0.54085,-0.16917 -0.19936,0.92967 -0.59933,2.77494 -0.79715,3.68707 0.0427,0.003 0.0862,0.005 0.13096,0.007 0.46144,0.0136 0.88386,-0.0186 1.35418,0.0249 0.13073,0.0121 0.31614,-0.0847 0.43583,-0.14394 0.009,-0.0263 0.017,-0.0527 0.0274,-0.0787 0.22625,-0.57036 0.13194,-0.74781 0.12765,-1.31768 -0.002,-0.27549 0.41649,-0.55979 0.70615,-0.60707 0.25307,-0.0602 0.4936,-0.0702 0.74305,0.0317 0.5111,0.20901 0.65687,0.37008 0.60665,0.81425 -0.0268,0.23779 -0.0655,0.50755 -0.055,0.74714 0.003,0.0631 0.006,0.12597 0.008,0.18926 0.002,0.072 2e-5,0.14696 -0.004,0.22361 z m 23.84163,-2.70767 c -0.17294,0.15582 -0.32889,0.32589 -0.4651,0.50736 -0.13311,0.17737 -0.25746,0.35936 -0.37053,0.54593 -0.0963,0.16353 -0.18382,0.33049 -0.2596,0.50113 -0.063,0.14172 -0.12218,0.28448 -0.17617,0.42848 l -0.005,0.0143 -0.0113,0.0116 c -0.0562,0.0577 -0.11438,0.11389 -0.17323,0.16952 -0.11849,0.1122 -0.23905,0.22271 -0.36102,0.33201 l -0.002,0.001 -0.002,0.001 c -0.0644,0.0529 -0.12885,0.10581 -0.19328,0.15875 -0.0646,0.0531 -0.12932,0.10621 -0.19396,0.15937 l -0.002,0.001 -0.002,10e-4 c -0.17172,0.12943 -0.35038,0.25192 -0.53807,0.36149 -0.12737,0.0743 -0.29378,0.15723 -0.44301,0.16897 -0.0211,0.002 -0.0422,3.8e-4 -0.062,-0.004 -0.0185,-0.005 -0.0359,-0.0117 -0.0531,-0.019 l -0.003,-0.001 -0.002,-0.001 c -0.0701,-0.0359 -0.12363,-0.0864 -0.15946,-0.15112 -0.0348,-0.0629 -0.0533,-0.13104 -0.054,-0.20336 -5e-4,-0.043 0.005,-0.0864 0.0134,-0.12942 0.009,-0.0453 0.0179,-0.0906 0.0261,-0.13601 l 8.9e-4,-0.005 0.002,-0.005 c 0.0967,-0.2803 0.21151,-0.43756 0.35879,-0.68013 l 0.002,-0.002 0.002,-0.002 c 0.18127,-0.26145 0.36912,-0.52032 0.57467,-0.76837 0.12192,-0.14714 0.24821,-0.33928 0.24659,-0.52037 -8.9e-4,-0.0994 -0.0449,-0.18705 -0.10833,-0.26304 -0.0651,-0.0779 -0.16056,-0.14274 -0.25205,-0.19507 l -0.16216,-0.0928 0.19918,-0.0344 c 0.0886,-0.0153 0.16353,-0.0519 0.21962,-0.11866 0.0624,-0.0744 0.0904,-0.15494 0.0813,-0.24325 l -2.6e-4,-0.003 -8e-5,-0.003 c -5e-4,-0.0243 -0.003,-0.0487 -0.007,-0.0723 -0.004,-0.0195 -0.01,-0.0386 -0.0191,-0.0564 l -5e-4,-0.001 -5e-4,-10e-4 c -0.0624,-0.13216 -0.18628,-0.23179 -0.31928,-0.30719 -0.18647,-0.1057 -0.43339,-0.11857 -0.658,-0.1009 -0.11762,0.009 -0.23514,0.0265 -0.35163,0.0491 -0.13715,0.0266 -0.27216,0.0711 -0.40161,0.12312 l -0.004,0.002 -0.004,0.001 c -0.23762,0.0701 -0.47013,0.15747 -0.69712,0.25521 -0.25699,0.11061 -0.50881,0.23214 -0.7558,0.36133 -0.6337,0.34433 -1.21425,0.76326 -1.73651,1.23641 -0.48217,0.43677 -0.86571,0.9457 -1.03207,1.53164 -0.0152,0.0581 -0.0277,0.1166 -0.0366,0.17529 l -0.005,0.0343 -0.0338,0.0192 c -0.11226,0.0643 -0.2449,0.12315 -0.37536,0.13342 -0.0886,0.007 -0.17016,-0.009 -0.24001,-0.0531 -0.052,-0.0328 -0.10104,-0.069 -0.14593,-0.10906 l -0.0392,-0.0349 0.0294,-0.0463 c 0.007,-0.0107 0.0145,-0.0209 0.0231,-0.0306 0.0111,-0.0126 0.0223,-0.025 0.0335,-0.0375 0.12618,-0.17245 0.23894,-0.35191 0.34161,-0.53502 0.11006,-0.19624 0.20566,-0.39825 0.28658,-0.60409 0.0688,-0.16871 0.12661,-0.34063 0.16879,-0.51445 0.0356,-0.14696 0.0594,-0.29755 0.058,-0.44551 -0.002,-0.12437 -0.0257,-0.24784 -0.0906,-0.3546 -0.0585,-0.0961 -0.15248,-0.15178 -0.27284,-0.17704 l -0.0138,-0.003 -0.0114,-0.007 c -0.004,-0.003 -0.0167,-0.002 -0.0215,-0.002 -0.021,0.002 -0.0419,0.003 -0.0629,0.005 -0.12488,0.01 -0.2487,0.0756 -0.34901,0.14462 -0.15177,0.10437 -0.28993,0.22695 -0.41801,0.3537 -0.16645,0.16614 -0.31635,0.34489 -0.45328,0.53011 -0.14053,0.19001 -0.26553,0.38846 -0.36914,0.59461 v 10e-4 0.001 c -0.0863,0.16074 -0.16038,0.32628 -0.21683,0.49539 -0.082,0.24595 -0.10994,0.46636 -0.0156,0.70571 l 0.0142,0.0359 -0.0285,0.0319 c -0.24468,0.27396 -0.5103,0.56352 -0.8069,0.79463 -0.125,0.0974 -0.34517,0.2565 -0.51129,0.2564 -0.0791,0.006 -0.13899,-0.0236 -0.1773,-0.0818 -0.0437,-0.0664 -0.0546,-0.15547 -0.0553,-0.23397 -0.002,-0.15019 0.0312,-0.30597 0.0739,-0.45402 0.0832,-0.28864 0.20341,-0.57893 0.351,-0.84848 0.22502,-0.45802 0.46253,-0.91385 0.73769,-1.35295 0.13221,-0.21107 0.331,-0.55844 0.31669,-0.79458 l -1e-4,-0.002 v -0.002 c 0,-0.0487 -0.0161,-0.0916 -0.05,-0.12793 -0.0387,-0.0414 -0.0955,-0.068 -0.15266,-0.0858 l -0.004,-10e-4 -0.004,-0.002 c -0.0279,-0.012 -0.0592,-0.022 -0.0911,-0.0241 -0.0322,-0.002 -0.065,-0.002 -0.0976,10e-4 -0.30582,0.0372 -0.60666,0.34496 -0.7868,0.55574 -0.38167,0.44656 -0.76821,0.8899 -1.15582,1.33255 -0.29047,0.34735 -0.58685,0.6912 -0.89571,1.02637 -0.23044,0.25009 -0.46737,0.49649 -0.72131,0.72847 -0.11677,0.10667 -0.23567,0.21196 -0.35878,0.3129 -0.0963,0.0789 -0.33637,0.27737 -0.46478,0.28748 -0.069,0.005 -0.10242,-0.0507 -0.11912,-0.0998 -0.0238,-0.0702 -0.0306,-0.14784 -0.0313,-0.22244 0,-0.0442 0.002,-0.0886 0.006,-0.13299 0.004,-0.0493 0.011,-0.0987 0.0198,-0.1478 0.0169,-0.11224 0.0411,-0.22427 0.0748,-0.33467 0.0251,-0.0821 0.0625,-0.1764 0.12364,-0.24504 0.14631,-0.16407 0.30192,-0.32165 0.45875,-0.47795 0.20489,-0.20412 0.40756,-0.40996 0.6086,-0.617 0.0392,-0.0439 0.0784,-0.0879 0.11757,-0.13178 0.0418,-0.0468 0.0862,-0.0919 0.13341,-0.13489 0.23066,-0.24083 0.45144,-0.48953 0.65445,-0.74848 0.12218,-0.1559 0.28192,-0.38019 0.3167,-0.56526 -0.003,-0.17341 -0.11775,-0.29567 -0.26947,-0.38502 -0.17676,-0.10399 -0.37485,-0.15633 -0.59554,-0.14876 -0.007,3.7e-4 -0.0136,0.001 -0.0205,0.002 -0.007,3.8e-4 -0.0139,10e-4 -0.021,0.002 -0.063,0.005 -0.12564,0.0171 -0.18667,0.0354 -0.0638,0.0191 -0.12701,0.0405 -0.18948,0.0638 -0.16885,0.0956 -0.32533,0.23166 -0.46167,0.36191 -0.18559,0.17733 -0.36457,0.3599 -0.53867,0.54595 -0.0784,0.088 -0.15688,0.17586 -0.23528,0.26381 -0.0807,0.0906 -0.159,0.1829 -0.23423,0.27716 -0.15875,0.19668 -0.31332,0.39597 -0.46214,0.59833 -0.11943,0.16229 -0.23514,0.32766 -0.33556,0.49903 -0.082,0.1577 -0.13289,0.3287 -0.16733,0.49619 -0.002,0.0106 -0.004,0.0211 -0.006,0.0315 l -0.004,0.0202 -0.0155,0.016 c -0.0597,0.062 -0.12197,0.12206 -0.18485,0.18155 -0.11854,0.11221 -0.23911,0.22272 -0.36101,0.33198 l -0.002,0.001 -0.002,0.001 c -0.0644,0.0529 -0.12882,0.10581 -0.19324,0.15874 -0.0647,0.0531 -0.12933,0.10622 -0.19403,0.15938 l -0.002,0.001 -0.002,10e-4 c -0.17166,0.12942 -0.35032,0.25192 -0.53803,0.36148 -0.12736,0.0744 -0.29374,0.15723 -0.443,0.16897 -0.0211,0.002 -0.0423,3.8e-4 -0.062,-0.004 -0.0185,-0.005 -0.0359,-0.0117 -0.0531,-0.019 l -0.003,-0.001 -0.002,-10e-4 c -0.07,-0.0359 -0.12363,-0.0864 -0.15941,-0.15112 -0.0348,-0.0629 -0.0533,-0.13108 -0.0539,-0.20336 -0.003,-0.24606 0.11907,-0.50228 0.23225,-0.72024 l 0.004,-0.008 0.006,-0.007 c 0.0327,-0.0369 0.0633,-0.0755 0.0905,-0.11572 0.0233,-0.0342 0.0461,-0.0688 0.0675,-0.10401 l 0.002,-0.002 0.002,-0.002 c 0.18126,-0.26141 0.3691,-0.52032 0.57459,-0.76836 0.12194,-0.14714 0.24829,-0.33928 0.24662,-0.52037 -0.002,-0.0994 -0.0449,-0.18706 -0.1083,-0.26303 -0.065,-0.078 -0.16057,-0.14275 -0.25206,-0.19508 l -0.16215,-0.0928 0.19919,-0.0344 c 0.0885,-0.0153 0.16353,-0.0519 0.21956,-0.11866 0.0624,-0.0743 0.0904,-0.15493 0.0813,-0.24327 v -0.003 l -5e-5,-0.003 c 0,-0.0243 -0.003,-0.0487 -0.007,-0.0723 -0.004,-0.0195 -0.01,-0.0386 -0.0191,-0.0563 v -0.001 -10e-4 c -0.0624,-0.13212 -0.18632,-0.23169 -0.31928,-0.3071 -0.18649,-0.10568 -0.43344,-0.11855 -0.65804,-0.10088 -0.11762,0.009 -0.2351,0.0265 -0.35155,0.0491 -0.13718,0.0266 -0.27218,0.0711 -0.40164,0.12312 l -0.004,10e-4 -0.004,0.001 c -0.23763,0.0701 -0.47012,0.15746 -0.69714,0.2552 -0.25698,0.11062 -0.50881,0.23215 -0.7558,0.36134 -0.63374,0.34432 -1.21424,0.76325 -1.7365,1.23641 -0.48224,0.43683 -0.86572,0.94569 -1.03215,1.53164 -0.0168,0.0645 -0.0304,0.12955 -0.0395,0.19476 -0.009,0.064 -0.0125,0.12811 -0.0119,0.19188 0,0.04 0.003,0.0798 0.008,0.11929 0.005,0.0391 0.0115,0.078 0.0211,0.11607 v 0.003 0.003 c 0.0499,0.32316 0.17545,0.62063 0.36708,0.88923 0.1565,0.21925 0.36507,0.44016 0.63524,0.55223 l 0.002,3.7e-4 c 0.0486,0.0212 0.1011,0.0363 0.15639,0.0414 0.0531,0.0047 0.10698,0.0054 0.16099,0.001 0.0533,-0.004 0.10625,-0.0155 0.15739,-0.0328 0.054,-0.0183 0.0984,-0.0531 0.13449,-0.0933 l 0.003,-0.003 2.27483,-2.06394 -0.0833,0.25287 c -0.0835,0.2534 -0.1591,0.50887 -0.2168,0.76627 -0.0485,0.21607 -0.0862,0.44019 -0.0843,0.65736 0.002,0.17366 0.0305,0.38956 0.16424,0.51595 0.10791,0.10194 0.24408,0.143096 0.40758,0.130222 0.30206,-0.02374 0.62652,-0.185522 0.88084,-0.339222 0.38748,-0.2343 0.7424,-0.51762 1.07008,-0.81619 0.23227,-0.21976 0.45252,-0.44935 0.66294,-0.68535 0.082,-0.0919 0.16142,-0.18568 0.23818,-0.28095 l 0.11325,-0.14039 0.0262,0.16245 c 0.0558,0.34537 0.17268,0.67309 0.3593,0.97206 0.20036,0.32094 0.50124,0.4924 0.93767,0.45805 0.0303,-0.002 0.0605,-0.005 0.0909,-0.007 0.0303,-0.002 0.0606,-0.01 0.0896,-0.019 l 0.0101,-0.003 0.0104,-0.001 c 0.16264,-0.0138 0.31683,-0.0693 0.45886,-0.14786 0.1743,-0.0964 0.33621,-0.21248 0.48681,-0.33737 0.20455,-0.17834 0.39164,-0.37234 0.56422,-0.57495 0.1568,-0.18411 0.30773,-0.37202 0.45298,-0.56305 l 0.15949,-0.20963 -0.018,0.24408 c -0.005,0.072 -0.0107,0.14395 -0.0164,0.21591 -0.008,0.1007 -0.0121,0.20142 -0.0112,0.30179 0.003,0.29797 0.0374,0.69707 0.22027,0.94136 0.13173,0.17592 0.31401,0.27045 0.56531,0.25108 0.37221,-0.0419 0.77818,-0.32239 1.05753,-0.54546 0.49757,-0.39728 0.92295,-0.90402 1.28941,-1.39664 l 0.0493,-0.0663 0.0656,0.0451 c 0.13506,0.0931 0.28695,0.17441 0.45346,0.22003 0.14513,0.0399 0.29911,0.0608 0.4556,0.0485 0.24976,-0.0196 0.47741,-0.10565 0.68487,-0.24125 l 0.0876,-0.0573 0.03,0.0869 c 0.0662,0.19157 0.16126,0.37191 0.28048,0.539 0.1565,0.21924 0.36507,0.44015 0.63519,0.55223 l 0.002,3.7e-4 c 0.0486,0.0212 0.10117,0.0363 0.15647,0.0414 0.0531,0.005 0.10695,0.005 0.1609,10e-4 0.0534,-0.004 0.10625,-0.0154 0.15741,-0.0328 0.0541,-0.0183 0.0984,-0.0531 0.13454,-0.0933 l 0.003,-0.003 2.27487,-2.06394 -0.0833,0.25286 c -0.0836,0.25341 -0.1591,0.50887 -0.21685,0.76627 -0.0485,0.21608 -0.0862,0.4402 -0.0843,0.65737 0.002,0.17365 0.0305,0.38955 0.16432,0.516 0.10791,0.10189 0.244,0.14304 0.4075,0.13018 0.30206,-0.0237 0.62653,-0.18554 0.88083,-0.33923 0.38749,-0.2343 0.7424,-0.51762 1.07008,-0.8162 0.23226,-0.21975 0.45253,-0.44933 0.66294,-0.68535 0.0266,-0.0298 0.0529,-0.0598 0.0789,-0.09 l 0.12994,-0.15058 0.009,0.18138 c 0.017,0.35627 0.10334,0.69785 0.27748,1.00911 0.16856,0.3013 0.4438,0.45779 0.83422,0.46509 0.009,-3.7e-4 0.0172,-0.002 0.0259,-0.002 0.009,-3.7e-4 0.0187,-0.001 0.028,-0.002 0.009,-3.8e-4 0.0187,-0.002 0.0279,-0.002 0.009,-3.7e-4 0.0187,-0.002 0.028,-0.002 0.19109,-0.015 0.37822,-0.0792 0.54992,-0.16313 0.21454,-0.1048 0.41371,-0.23747 0.59815,-0.38265 0.1753,-0.13529 0.34292,-0.2789 0.504,-0.42749 0.16452,-0.15178 0.32398,-0.30795 0.47663,-0.46916 0.13146,-0.13823 0.25849,-0.27971 0.37916,-0.42521 0.10376,-0.12507 0.20499,-0.2517 0.30211,-0.38068 l -0.10374,-0.57633 c -0.31912,0.35168 -0.69003,0.70027 -1.11035,0.95143 -0.27892,0.16668 -0.63566,0.34045 -0.96657,0.35481 -0.19545,0.015 -0.37649,-0.0194 -0.51635,-0.13509 -0.14607,-0.12088 -0.19431,-0.29573 -0.19593,-0.47507 -5.1e-4,-0.0373 0.002,-0.0749 0.006,-0.11242 0.004,-0.0305 0.009,-0.0609 0.014,-0.0913 l 0.005,-0.0317 0.0302,-0.019 c 0.12644,-0.0791 0.25394,-0.20046 0.36291,-0.29917 0.19834,-0.1797 0.38292,-0.37138 0.55857,-0.56839 0.0911,-0.10222 0.18103,-0.20533 0.26938,-0.30941 0.089,-0.10465 0.17355,-0.21181 0.25393,-0.32083 0.12791,-0.17941 0.2445,-0.36494 0.34219,-0.55734 0.0725,-0.14289 0.13376,-0.30611 0.13235,-0.45941 -5.1e-4,-0.0617 -0.0121,-0.12478 -0.0464,-0.17679 -0.0339,-0.0514 -0.0886,-0.0873 -0.14831,-0.11331 l -0.002,-0.001 -0.002,-10e-4 c -0.0686,-0.0337 -0.1452,-0.0618 -0.22529,-0.071 -0.071,-0.008 -0.14348,-0.01 -0.2161,-0.004 -0.17312,0.0137 -0.32797,0.074 -0.46672,0.17496 -0.14906,0.10858 -0.2911,0.22496 -0.42578,0.34764 l -0.003,0.002 -0.003,0.002 c -0.0251,0.0194 -0.0494,0.0395 -0.0725,0.0606 -0.0249,0.0227 -0.0508,0.0442 -0.0776,0.0649 z m -22.92754,4.86406 c -0.0107,-0.0224 -0.0153,-0.0466 -0.0155,-0.0715 -1.1e-4,-0.0216 0,-0.0433 0,-0.065 -0.002,-0.0929 0.0191,-0.18536 0.0557,-0.275 0.0383,-0.0942 0.0855,-0.18589 0.1394,-0.27477 l 0.002,-0.002 0.002,-0.002 c 0.21379,-0.31869 0.52124,-0.59827 0.83934,-0.8382 0.36983,-0.279 0.76209,-0.53324 1.17265,-0.75907 0.24799,-0.13895 0.50174,-0.26902 0.76223,-0.38628 0.17913,-0.0807 0.35918,-0.15957 0.54063,-0.23554 l 0.28984,-0.12136 -0.20196,0.22419 c -0.15119,0.16779 -0.30462,0.33413 -0.4585,0.50008 -0.23545,0.25394 -0.47359,0.50603 -0.71371,0.75669 l -0.002,10e-4 v 0.001 c -0.0699,0.0692 -0.13887,0.13907 -0.20659,0.20989 -0.0637,0.0665 -0.12863,0.13224 -0.1952,0.1969 -0.32935,0.31605 -0.67024,0.62359 -1.02929,0.91316 -0.18283,0.1475 -0.51725,0.40167 -0.76039,0.4208 -0.0558,0.004 -0.10489,-0.009 -0.14476,-0.0412 -0.046,-0.0368 -0.0651,-0.0976 -0.0736,-0.15239 z m 15.51657,-1.22088 c -0.0107,-0.0224 -0.0153,-0.0466 -0.0155,-0.0716 -1.1e-4,-0.0217 -5e-4,-0.0433 -5e-4,-0.065 -8.9e-4,-0.0929 0.0191,-0.18534 0.0557,-0.27498 0.0384,-0.0942 0.0855,-0.18591 0.13938,-0.27483 l 8.9e-4,-0.002 8.9e-4,-0.002 c 0.21378,-0.31869 0.52119,-0.59827 0.83931,-0.8382 0.36985,-0.27896 0.76212,-0.53323 1.17264,-0.75907 0.24799,-0.13894 0.50173,-0.26902 0.76222,-0.38627 0.1792,-0.0807 0.35925,-0.15958 0.54061,-0.23555 l 0.28985,-0.12135 -0.20191,0.22418 c -0.1512,0.1678 -0.3046,0.33412 -0.45849,0.50008 -0.23553,0.25394 -0.4736,0.50603 -0.71373,0.75668 l -8.9e-4,10e-4 -8.9e-4,0.001 c -0.0699,0.0692 -0.1389,0.13907 -0.20662,0.2099 -0.0635,0.0665 -0.12866,0.13225 -0.19521,0.1969 -0.32935,0.31611 -0.67023,0.6236 -1.02931,0.91316 -0.18283,0.14751 -0.51717,0.40167 -0.76033,0.42079 -0.0558,0.004 -0.10487,-0.009 -0.14473,-0.0412 -0.046,-0.0368 -0.0651,-0.0975 -0.0736,-0.15234 z m 10.28248,-5.97057 c -0.009,-0.14315 -0.0542,-0.28029 -0.16886,-0.37855 -0.102,-0.0873 -0.22606,-0.12384 -0.37352,-0.11223 -0.10673,0.008 -0.21011,0.0445 -0.30505,0.093 -0.12376,0.0632 -0.23709,0.14855 -0.33889,0.23802 -0.0492,0.0448 -0.0936,0.0936 -0.1348,0.1441 -0.0426,0.0522 -0.0862,0.10373 -0.13119,0.15443 l 1.2e-4,0.0103 -0.008,0.0151 c -0.0562,0.1065 -0.10408,0.21664 -0.13696,0.32925 -0.027,0.0926 -0.0459,0.18927 -0.0452,0.28332 0.01,0.15484 0.0563,0.30277 0.17079,0.41594 0.10094,0.0998 0.22848,0.14379 0.38604,0.13139 0.079,-0.006 0.1581,-0.033 0.22996,-0.0661 0.0909,-0.0419 0.17288,-0.0995 0.24584,-0.16402 l 0.003,-0.003 0.003,-0.002 c 0.078,-0.0571 0.14636,-0.12539 0.20661,-0.19722 0.0753,-0.0897 0.13953,-0.18639 0.19672,-0.2851 l 8.9e-4,-0.001 c 0.0636,-0.10503 0.11951,-0.21595 0.15431,-0.32977 0.0276,-0.0902 0.0458,-0.18387 0.0451,-0.27566 z m -34.26212,-2.41267 c 0,0 -0.59141,-0.0859 -0.0149,-0.11974 0.57654,-0.0339 0.67413,-0.0646 0.83463,-0.0254 0.16056,0.0392 0.53049,0.10798 0.75117,0.0906 0.22075,-0.0173 0.42853,-0.0625 0.65099,3.8e-4 0.22245,0.0631 0.4937,0.11087 0.64193,0.15099 0.14825,0.0402 0.321,0.0784 0.33467,0.14069 0.0136,0.0623 0.17378,0.0842 0.19963,0.14554 0.0259,0.0613 0.0809,0.21177 0.0766,0.29837 -0.004,0.0866 0.0165,0.19426 0.0428,0.27845 0.0263,0.0842 -0.003,0.14688 0.0229,0.20814 0.0259,0.0613 0.12827,0.25735 -0.2032,0.24606 -0.33143,-0.0114 -0.52654,0.0414 -0.61888,0.0256 -0.0924,-0.0157 -0.29476,-0.017 -0.312,0.0361 -0.0172,0.0531 0.0444,0.0684 0.1005,0.10998 0.0561,0.0416 0.30458,0.18597 0.37292,0.22665 0.0684,0.0406 0.23301,-0.001 0.25283,0.0635 0.0198,0.0646 -0.004,0.11248 -0.0702,0.15794 -0.0664,0.0455 -0.0881,0.17948 -0.20914,0.25516 -0.121,0.0757 -0.29265,0.0805 -0.22331,0.16712 0.0693,0.0865 0.19184,0.0798 0.10849,0.19562 -0.0834,0.11584 -0.10463,0.26708 -0.17044,0.34125 -0.0659,0.0742 -0.12728,0.0704 -0.20343,0.2346 -0.0763,0.16412 -0.14907,0.19862 -0.30175,0.22791 -0.15273,0.0293 -0.1215,0.0527 -0.12079,0.0871 0.002,0.0344 -0.11461,0.11169 -0.0998,0.23146 0.039,0.31402 -0.24761,0.34225 -0.26953,0.48332 -0.0295,0.19015 -0.22451,0.0781 -0.51579,0.41859 -0.22943,0.26809 -0.0495,0.25938 -0.34867,0.5593 -0.084,0.0843 0.0323,0.17367 -0.13719,0.27905 -0.16945,0.10536 -0.16266,0.18001 -0.27778,0.24368 -0.11515,0.0637 -0.2165,0.29818 -0.28297,0.0618 -0.0664,-0.23631 -0.19589,-0.2664 0.004,-0.4172 0.19917,-0.15086 0.0242,-0.29811 0.0222,-0.39285 -0.003,-0.0947 -0.0885,-0.12244 -0.12031,-0.17461 -0.0318,-0.0521 -0.22096,-0.006 -0.0894,-0.16262 0.1315,-0.15705 0.0433,-0.26799 0.20777,-0.31831 0.1645,-0.0503 0.23567,-0.16233 0.25906,-0.21594 0.0234,-0.0536 0.19981,-0.11924 0.26639,-0.159 0.0666,-0.0398 0.0374,-0.256 0.0419,-0.33116 0.004,-0.0751 -0.20474,-0.10756 0.007,-0.21916 0.21221,-0.11158 0.3755,-0.21932 0.42913,-0.29253 0.0536,-0.0733 0.26283,-0.32266 0.45782,-0.38114 0.19501,-0.0585 0.29345,-0.0432 0.29163,-0.12936 -0.002,-0.0861 -0.0203,-0.0875 0.15011,-0.14694 0.17048,-0.0595 0.34531,-0.19973 0.30808,-0.2198 -0.0373,-0.0201 -0.0565,-0.0617 -0.2028,-0.0186 -0.14627,0.0431 -0.23582,0.15659 -0.38981,0.12557 -0.15402,-0.031 -0.24609,-0.0353 -0.24115,-0.0903 0.005,-0.0551 -0.0205,-0.0962 -0.12371,-0.0478 -0.10322,0.0484 -0.22452,0.11255 -0.36418,0.17816 -0.13959,0.0657 -0.41966,0.16244 -0.53369,0.27498 -0.11412,0.11249 -0.0339,0.13494 -0.29107,0.15517 -0.25719,0.0202 -0.30753,-0.0391 -0.29002,-0.0807 0.0175,-0.0417 0.0893,-0.12497 0.009,-0.13592 -0.08,-0.011 -0.23146,0.0757 -0.32213,0.13748 -0.0906,0.0618 -0.30306,0.16479 -0.45971,0.29499 -0.15663,0.13023 -0.30783,0.2284 -0.54669,0.24434 -0.23887,0.016 -0.42651,0.12846 -0.48828,0.11032 -0.0617,-0.0182 -0.277,-0.0472 -0.0889,-0.14257 0.188,-0.0953 0.2613,-0.10969 0.38866,-0.17723 0.12732,-0.0675 0.003,-0.14113 0.20455,-0.18288 0.20152,-0.0418 0.1831,-0.0432 0.24329,-0.0939 0.0603,-0.0508 0.0962,-0.091 0.21781,-0.13793 0.12166,-0.0469 0.35681,-0.23517 0.50276,-0.29264 0.14593,-0.0575 -0.003,-0.1206 0.17436,-0.16037 0.17701,-0.0398 0.17038,-0.0623 0.37697,-0.15331 0.2065,-0.091 0.27764,-0.20594 0.60313,-0.1855 0.32549,0.0204 0.0429,0.002 0.54551,-0.0171 0.50252,-0.0194 0.38081,0.0247 0.60749,0.0155 0.22674,-0.009 0.27525,-0.036 0.31768,-0.0595 0.0424,-0.0235 0.0712,-0.11203 -0.003,-0.14065 -0.0742,-0.0287 -0.10195,-0.17606 -0.75651,-0.0987 -0.65457,0.0774 -0.46656,-0.018 -0.66191,0.0233 -0.19539,0.0412 -0.36152,0.014 -0.3745,-0.0194 -0.013,-0.0335 -0.13619,-0.0554 -0.42984,-0.0208 -0.2936,0.0346 -0.50821,0.0371 -0.54554,0.0142 -0.27508,-0.16926 -0.93209,0.15543 -1.20526,0.13797 -0.14125,-0.009 -0.28193,0.008 -0.34831,0.0591 -0.0663,0.0512 -0.20123,0.0532 -0.4029,0.0863 -0.20169,0.0332 -0.22647,0.0207 -0.3065,0.007 -0.08,-0.0139 -0.25322,-0.0807 -0.0876,-0.0822 0.16558,-0.002 0.26335,-0.0179 0.36089,-0.0457 0.0976,-0.0278 0.12611,-0.12496 0.30366,-0.13893 0.1775,-0.014 0.34255,-0.0414 0.39093,-0.0739 0.26086,-0.17564 0.76075,-0.25151 1.10454,-0.25657 0.13491,-0.002 0.12885,0.002 0.27576,-0.0102 0.14696,-0.0116 0.26909,-0.0355 0.39851,-0.005 0.12947,0.0301 0.32658,0.0692 0.52906,0.0734 0.20249,0.004 0.32362,-0.0686 0.45919,-0.039 0.13551,0.0296 0.14204,0.0463 0.25844,0.04 0.1164,-0.006 0.30037,-0.006 0.30594,-0.0327 0.005,-0.0263 0.0876,-0.0616 -0.1439,-0.13104 -0.23151,-0.0695 -0.53567,-0.0973 -0.81323,-0.17036 -0.27759,-0.0731 -0.33363,-0.11178 -0.76352,-0.13838 -0.42993,-0.0265 -0.60243,-0.0619 -0.81779,-0.0938 -0.21533,-0.0319 -0.13066,-0.0846 -0.43071,-0.0639 -0.30008,0.0207 -0.34292,0.0241 -0.39305,-0.0238 -0.0501,-0.0478 -0.22152,-0.0344 -0.36234,-0.0232 -0.14085,0.011 -0.50998,-0.0432 -0.27183,-0.0907 0.23817,-0.0475 0.48849,-0.0989 0.55572,-0.10988 0.0672,-0.0111 -0.0139,-0.0795 0.24983,-0.0772 0.26372,0.002 0.21551,0.0405 0.38693,0.0242 0.17137,-0.0164 0.152,-0.0609 0.35405,-0.0768 0.20203,-0.0159 0.22664,-0.0121 0.27647,0.0242 0.0499,0.0363 0.051,0.0909 0.14282,0.0808 0.0918,-0.0101 0.0418,-0.055 0.17692,-0.0455 0.13512,0.01 0.22084,0.003 0.32544,0.0176 0.10457,0.0147 0.17144,-0.0135 0.22726,0.0166 0.0559,0.0301 -0.0228,0.0794 0.13032,0.0703 0.15314,-0.009 0.079,-0.035 0.24485,-0.0221 0.16587,0.0128 0.18999,-0.006 0.31977,0.0381 0.12974,0.0445 0.3939,0.0639 0.51768,0.11458 0.12375,0.0506 0.24756,0.10417 0.46891,0.12991 0.22134,0.0257 0.42524,0.0931 0.56762,0.15665 0.14246,0.0635 0.17942,0.0692 0.32182,0.13285 0.14247,0.0635 0.27789,0.0874 0.29487,0.0199 0.017,-0.0675 0.0287,-0.0885 -0.12602,-0.15396 -0.15474,-0.0655 -0.2089,-0.0181 -0.29657,-0.10031 -0.0876,-0.0823 -0.17955,-0.0779 -0.19966,-0.15685 -0.0202,-0.0789 -0.0692,-0.0751 -0.26001,-0.11182 -0.19095,-0.0367 -0.46749,-0.0639 -0.50598,-0.14135 -0.0385,-0.0775 -0.19848,-0.10233 -0.028,-0.15597 0.17062,-0.0537 0.26743,-0.1131 0.21152,-0.14607 -0.0559,-0.033 -0.0566,-0.0646 -0.20952,-0.0439 -0.15285,0.0207 -0.30521,0.0643 -0.33643,0.0395 -0.0312,-0.0249 -0.14807,-0.0401 -0.23095,-0.0437 -0.0828,-0.004 -0.24149,0.0362 -0.34944,0.007 -0.10794,-0.0289 -0.44843,-0.0338 -0.48839,-0.0378 -0.0399,-0.004 -0.10535,-0.0108 -0.10535,-0.0108 z m 4.02144,1.36064 c 0,0 -0.23715,0.11843 -0.22445,0.0131 0.0127,-0.10526 0.0968,-0.14132 0.10568,-0.19415 0.009,-0.0529 -0.083,-0.14307 -0.004,-0.17654 0.0791,-0.0334 0.13352,-0.0603 0.11792,-0.0908 -0.0156,-0.0305 -0.0911,-0.0518 -0.0118,-0.0762 0.0794,-0.0244 0.0929,-0.0957 0.1222,-0.12295 0.0294,-0.0272 0.10763,-0.10362 0.18205,-0.12762 0.0743,-0.024 0.13865,-0.0517 0.11331,-0.0701 -0.0253,-0.0184 0.008,-0.0709 0.0729,-0.0941 0.0644,-0.0232 0.0799,3.8e-4 0.18412,-0.0281 0.10425,-0.0286 0.059,-0.0432 0.27382,-0.0375 0.21491,0.006 0.255,0.014 0.32952,-0.003 0.0746,-0.0172 0.1103,0.0186 0.18034,0.0243 0.07,0.006 0.13523,0.0211 0.21521,0.0239 0.0799,0.003 0.14943,-0.0163 0.19497,0.01 0.0455,0.0259 0.0259,0.0456 0.0958,0.0446 0.0699,-10e-4 0.14968,-0.007 0.19029,0.0235 0.0406,0.0308 0.0564,0.0659 0.15629,0.0693 0.0999,0.004 0.10964,-0.0109 0.18036,0.0266 0.0708,0.0375 0.0603,0.0156 0.14584,0.0474 0.0856,0.0318 0.27609,0.0689 0.18709,0.10771 -0.089,0.0387 -0.30886,0.0333 -0.43378,0.0319 -0.12485,-0.002 -0.33344,0.0511 -0.55903,0.01 -0.22559,-0.0412 -0.24852,0.0536 -0.34288,0.0791 -0.0943,0.0255 -0.15981,-0.003 -0.20864,0.0481 -0.0489,0.0515 -0.0981,0.0825 -0.17242,0.10878 -0.33295,0.11755 -0.72304,0.2083 -1.09094,0.35329 z m 1.85148,-0.27018 c 0.081,-0.006 0.39991,-0.0549 0.5358,-0.0226 0.1359,0.0323 0.45172,0.0505 0.63673,0.0595 0.18496,0.009 0.98373,0.29773 1.30162,0.3903 0.31787,0.0925 0.69864,0.17229 0.85329,0.23063 0.1547,0.0584 0.0782,0.11122 0.18287,0.15775 0.1047,0.0466 0.10109,0.0899 0.07,0.10795 -0.0312,0.0182 -0.20715,0.009 -0.27092,-0.0217 -0.0637,-0.0302 -0.0803,0.0376 -0.20741,-0.007 -0.1272,-0.0448 -0.12846,-0.1034 -0.22335,-0.11549 -0.0949,-0.012 -0.18524,-0.0206 -0.26714,-0.0572 -0.0819,-0.0366 -0.15802,-0.0149 -0.24352,-0.008 -0.0855,0.007 -0.13924,0.0227 -0.16734,-0.0259 -0.0281,-0.0487 -0.0973,-0.1215 -0.12344,-0.0803 -0.0261,0.0412 -0.007,0.1062 -0.14244,0.0816 -0.13573,-0.0246 -0.21644,-0.006 -0.31179,-0.0381 -0.0953,-0.0316 -0.24935,-0.0703 -0.32336,-0.15845 -0.074,-0.0881 -0.57572,-0.15428 -0.69388,-0.19975 -0.11816,-0.0455 -0.40264,-0.0701 -0.69113,-0.0748 -0.56806,-0.009 -0.40247,-0.17964 0.0854,-0.21803 z m -1.35723,0.62333 c 0,0 -0.26366,-0.091 -0.0202,-0.0995 0.24345,-0.009 0.48838,0.0467 0.79467,0.0226 0.30632,-0.0241 0.39582,-0.0577 0.83936,0.003 0.44353,0.0609 0.58826,0.0762 0.79874,0.20868 0.21048,0.1325 0.59379,0.33125 0.79347,0.38475 0.19973,0.0535 0.66252,0.17148 0.84461,0.24232 0.18199,0.0709 0.1566,0.14744 0.25003,0.29445 0.0934,0.14704 0.3519,0.41416 0.41634,0.47302 0.0645,0.0588 0.12889,0.11764 0.1943,0.21897 0.0653,0.10133 0.11132,0.14033 0.11362,0.2466 0.003,0.1063 0.14024,0.22323 0.0505,0.24625 -0.0898,0.023 -0.13565,-0.0107 -0.19139,-0.0861 -0.0558,-0.0754 -0.12196,-0.21396 -0.33971,-0.26604 -0.21771,-0.052 -0.26404,-0.10699 -0.28391,-0.19066 -0.0198,-0.0836 -0.19219,-0.12328 -0.22973,-0.18952 -0.0375,-0.0662 -0.16653,-0.18923 -0.15844,-0.23241 0.008,-0.0432 -0.0206,-0.11554 -0.0764,-0.19631 -0.0559,-0.0808 -0.21274,-0.0592 -0.25663,-0.005 -0.0439,0.0539 -0.0675,0.21263 -0.29875,0.14842 -0.23127,-0.0642 -0.29042,-0.0914 -0.35438,-0.13161 -0.064,-0.0402 -0.22643,-0.0513 -0.30429,-0.10896 -0.0779,-0.0577 -0.26717,-0.0588 -0.33317,-0.1918 -0.066,-0.13306 -0.092,-0.0884 -0.15776,-0.2109 -0.0658,-0.12245 -0.17935,-0.164 -0.30178,-0.19957 -0.12246,-0.0356 -0.35209,-0.0254 -0.44656,-0.018 -0.0945,0.007 -0.54219,-0.0637 -0.59257,-0.0996 -0.0503,-0.0359 -0.74993,-0.263 -0.74993,-0.263 z m 1.88336,4.28291 c 0.1062,-0.0269 0.6033,-0.19498 0.51757,0.56327 -0.0857,0.75822 -0.0219,0.40856 -0.0159,0.67882 0.006,0.27033 -0.0899,1.67564 -0.87938,2.73502 -0.78939,1.05945 -0.49996,0.924643 -0.0666,0.88431 0.43348,-0.0403 0.87841,-0.0695 1.11278,-0.0815 0.23436,-0.0121 0.53246,-2.5e-4 0.20327,0.218306 -0.32918,0.218537 -0.51719,0.353138 -0.92827,0.331718 -0.41109,-0.02147 -2.26763,0.01997 -2.10155,-0.168291 l 1.39441,-2.336113 c 0,0 0.0954,-0.17409 -0.18345,-0.13655 -0.27901,0.0376 -2.66517,-0.12868 -2.67428,-0.1332 -0.009,-0.005 -0.22449,-0.0281 -0.2776,0.0999 -0.0531,0.12803 -0.77478,2.874384 -2.02001,4.272604 -1.36146,-0.08035 -4.37292,0.0238 -4.08443,-0.240948 0.33282,-0.189348 0.61776,-0.507493 0.99847,-0.568003 1.36212,-0.09824 2.32703,-0.410649 2.81254,-0.981471 2.1227,-2.361062 2.45527,-8.173602 2.84161,-8.424502 0.38629,-0.25083 -0.19306,-0.0843 0.18661,-0.23898 0.3797,-0.1547 -0.0165,-0.13912 0.1026,-0.25771 0.11912,-0.11855 0.25495,-0.29565 0.35812,-0.31937 0.10312,-0.0237 0.71235,-0.0759 1.22579,0.29497 0.51339,0.37094 0.73063,0.31622 0.66238,0.49863 -0.0683,0.18239 -0.0462,0.18725 0.0369,0.27693 0.083,0.0897 1.09803,0.0507 1.17702,0.15887 0.0789,0.1082 0.17836,0.1212 0.10733,0.17097 -0.071,0.0498 -0.1832,0.0716 -0.22452,0.0384 -0.0412,-0.0331 -0.16487,-0.12221 -0.22254,-0.0787 -0.0576,0.0435 -0.0837,0.0846 -0.0285,0.14001 0.0553,0.0554 0.25114,0.0842 0.28512,0.19596 0.034,0.11172 0.0543,0.0937 0.16864,0.17313 0.11444,0.0794 0.013,0.18618 0.17131,0.21016 0.68377,0.10347 -0.0243,0.38512 -0.65637,0.0633 -0.75234,-0.45306 -0.55782,-0.18104 -1.36039,-0.47131 -0.18061,-0.0653 -0.39561,-0.0866 -0.36903,-0.22169 0.0283,-0.14376 -0.46835,-0.367 -0.4388,-0.44138 0.0107,-0.0268 -0.0301,-0.0684 0.002,-0.35651 0.0312,-0.2881 -0.2946,-0.27191 -0.38282,-0.16231 -0.0883,0.10967 -0.13636,0.26063 -0.15516,0.3284 -0.0353,0.12717 0.075,0.36882 0.0451,0.52035 -0.0203,0.10306 -1.02671,4.7579 -1.02671,4.7579 0.77069,0.2543 1.26661,0.0842 2.16957,0.16774 0.33461,0.0309 0.58921,-0.10124 0.84824,-0.22576 0.25899,-0.12448 0.24387,-0.2296 0.30404,-0.38114 0.28193,-0.71071 0.13388,-0.61057 0.1295,-1.18515 -0.002,-0.26105 0.17507,-0.37289 0.2364,-0.36919 z m 0.53652,3.69662 c -0.0967,0.18609 -0.2063,0.36641 -0.32993,0.53814 0.14276,-0.01 0.2855,-0.0184 0.4279,-0.0258 0.0279,-0.002 0.0559,-0.003 0.0838,-0.003 0.002,-4e-5 0.003,-9e-5 0.004,-10e-5 -0.0801,-0.16377 -0.14224,-0.33381 -0.18558,-0.509"
       style="fill:#ffffff;fill-opacity:1;fill-rule:evenodd;stroke:none;stroke-width:0.19463105"
       id="path16" />
  </g>
</svg>
